<svg width="32" height="32" viewBox="0 0 32 32" fill="none" xmlns="http://www.w3.org/2000/svg">
<path fill-rule="evenodd" clip-rule="evenodd" d="M32 9.9661C32 9.58622 32.0002 9.2063 31.9978 8.82638C31.9959 8.50634 31.9922 8.18638 31.9835 7.8665C31.9647 7.16929 31.9236 6.46611 31.7996 5.77668C31.6739 5.0773 31.4685 4.42639 31.1449 3.79094C30.8268 3.16636 30.4112 2.59483 29.9154 2.09933C29.4196 1.60384 28.8479 1.18854 28.2231 0.870599C27.587 0.546911 26.9354 0.34163 26.2353 0.215922C25.5458 0.0921162 24.8424 0.0510678 24.1452 0.0322329C23.8251 0.0235727 23.505 0.0199223 23.1848 0.0179417C22.8046 0.0156116 22.4245 0.0158058 22.0444 0.0158058L17.6309 0H14.33L9.99461 0.0158058C9.61375 0.0158058 9.2329 0.0156116 8.85205 0.0179417C8.5312 0.0199223 8.2105 0.0235727 7.88977 0.0322329C7.19094 0.0510678 6.48597 0.092155 5.79483 0.216116C5.09375 0.341785 4.44117 0.546988 3.8042 0.870443C3.17807 1.18842 2.60515 1.60376 2.10837 2.09933C1.61168 2.59479 1.19533 3.1662 0.876615 3.79067C0.552112 4.42643 0.346366 5.07773 0.220309 5.77749C0.0961935 6.46666 0.0550676 7.1696 0.0361551 7.8665C0.0275338 8.18642 0.0238056 8.50638 0.0218639 8.82638C0.0195338 9.20634 0 9.67829 0 10.0582L0.000116504 14.3335L0 17.6698L0.019728 22.036C0.019728 22.4164 0.0195727 22.7968 0.0218639 23.1773C0.0238056 23.4977 0.0275338 23.8181 0.0361939 24.1385C0.0550676 24.8366 0.0962711 25.5408 0.220503 26.2311C0.346522 26.9314 0.552229 27.5833 0.87646 28.2195C1.19521 28.845 1.61164 29.4173 2.10837 29.9135C2.60511 30.4097 3.17788 30.8255 3.80389 31.1439C4.44125 31.468 5.09414 31.6736 5.79565 31.7995C6.48648 31.9235 7.19121 31.9646 7.88977 31.9834C8.2105 31.9921 8.53124 31.9958 8.85209 31.9977C9.23294 32 9.61375 31.9999 9.99461 31.9999L14.3692 32H17.6783L22.0444 31.9998C22.4245 31.9998 22.8046 32 23.1848 31.9977C23.505 31.9958 23.8251 31.9921 24.1452 31.9834C24.8427 31.9645 25.5463 31.9234 26.2361 31.7993C26.9358 31.6734 27.5871 31.468 28.2229 31.144C28.8478 30.8257 29.4196 30.4098 29.9154 29.9135C30.4111 29.4174 30.8266 28.8452 31.1448 28.2198C31.4686 27.5832 31.6739 26.9311 31.7998 26.2303C31.9236 25.5402 31.9647 24.8363 31.9836 24.1385C31.9922 23.8181 31.9959 23.4977 31.9978 23.1773C32.0002 22.7968 32 22.4164 32 22.036C32 22.036 31.9998 17.7469 31.9998 17.6698V14.33C31.9998 14.2731 32 9.9661 32 9.9661" fill="url(#paint0_linear_71_317)"/>
<mask id="mask0_71_317" style="mask-type:luminance" maskUnits="userSpaceOnUse" x="0" y="0" width="32" height="32">
<path fill-rule="evenodd" clip-rule="evenodd" d="M32 9.9661C32 9.58622 32.0002 9.2063 31.9978 8.82638C31.9959 8.50634 31.9922 8.18638 31.9835 7.8665C31.9647 7.16929 31.9236 6.46611 31.7996 5.77668C31.6739 5.0773 31.4685 4.42639 31.1449 3.79094C30.8268 3.16636 30.4112 2.59483 29.9154 2.09933C29.4196 1.60384 28.8479 1.18854 28.2231 0.870599C27.587 0.546911 26.9354 0.34163 26.2353 0.215922C25.5458 0.0921162 24.8424 0.0510678 24.1452 0.0322329C23.8251 0.0235727 23.505 0.0199223 23.1848 0.0179417C22.8046 0.0156116 22.4245 0.0158058 22.0444 0.0158058L17.6309 0H14.33L9.99461 0.0158058C9.61375 0.0158058 9.2329 0.0156116 8.85205 0.0179417C8.5312 0.0199223 8.2105 0.0235727 7.88977 0.0322329C7.19094 0.0510678 6.48597 0.092155 5.79483 0.216116C5.09375 0.341785 4.44117 0.546988 3.8042 0.870443C3.17807 1.18842 2.60515 1.60376 2.10837 2.09933C1.61168 2.59479 1.19533 3.1662 0.876615 3.79067C0.552112 4.42643 0.346366 5.07773 0.220309 5.77749C0.0961935 6.46666 0.0550676 7.1696 0.0361551 7.8665C0.0275338 8.18642 0.0238056 8.50638 0.0218639 8.82638C0.0195338 9.20634 0 9.67829 0 10.0582L0.000116504 14.3335L0 17.6698L0.019728 22.036C0.019728 22.4164 0.0195727 22.7968 0.0218639 23.1773C0.0238056 23.4977 0.0275338 23.8181 0.0361939 24.1385C0.0550676 24.8366 0.0962711 25.5408 0.220503 26.2311C0.346522 26.9314 0.552229 27.5833 0.87646 28.2195C1.19521 28.845 1.61164 29.4173 2.10837 29.9135C2.60511 30.4097 3.17788 30.8255 3.80389 31.1439C4.44125 31.468 5.09414 31.6736 5.79565 31.7995C6.48648 31.9235 7.19121 31.9646 7.88977 31.9834C8.2105 31.9921 8.53124 31.9958 8.85209 31.9977C9.23294 32 9.61375 31.9999 9.99461 31.9999L14.3692 32H17.6783L22.0444 31.9998C22.4245 31.9998 22.8046 32 23.1848 31.9977C23.505 31.9958 23.8251 31.9921 24.1452 31.9834C24.8427 31.9645 25.5463 31.9234 26.2361 31.7993C26.9358 31.6734 27.5871 31.468 28.2229 31.144C28.8478 30.8257 29.4196 30.4098 29.9154 29.9135C30.4111 29.4174 30.8266 28.8452 31.1448 28.2198C31.4686 27.5832 31.6739 26.9311 31.7998 26.2303C31.9236 25.5402 31.9647 24.8363 31.9836 24.1385C31.9922 23.8181 31.9959 23.4977 31.9978 23.1773C32.0002 22.7968 32 22.4164 32 22.036C32 22.036 31.9998 17.7469 31.9998 17.6698V14.33C31.9998 14.2731 32 9.9661 32 9.9661" fill="white"/>
</mask>
<g mask="url(#mask0_71_317)">
</g>
<g filter="url(#filter0_b_71_317)">
<path d="M4.90569 14.2077C5.00135 14.175 4.95728 14.2074 4.87925 14.2722C4.87667 14.2371 4.88097 14.2161 4.90569 14.2077ZM4.85883 16.8637C4.67353 16.3302 4.62688 15.7148 4.77026 15.0266C4.92697 15.4286 5.12281 15.7679 5.35153 16.049C5.77609 16.5708 6.30426 16.8839 6.89929 17.0156C7.46809 17.1415 8.08289 17.0967 8.7121 16.9075C9.50253 16.67 10.3291 16.2007 11.1189 15.5569C11.2786 15.4269 11.348 15.3724 11.3506 15.3735C11.354 15.3748 11.3753 15.4529 11.4082 15.581C11.4725 15.8316 11.4888 16.1727 11.4613 16.5519C11.3813 17.6633 10.9579 18.9845 10.3142 19.2085C9.48254 19.4979 8.50186 19.488 7.58782 19.2212C6.96335 19.0389 6.37584 18.7379 5.89432 18.3321C5.42784 17.9387 5.06047 17.4446 4.85883 16.8637ZM3.65975 14.3314C3.33988 15.4288 3.3833 16.418 3.68081 17.2746C3.95919 18.0758 4.45964 18.7521 5.09293 19.286C5.71095 19.8069 6.45581 20.1908 7.24087 20.42C8.39309 20.7565 9.64548 20.7632 10.7246 20.3875C11.8783 19.9859 12.5993 18.1453 12.7077 16.6401C12.7438 16.1393 12.7152 15.6612 12.6155 15.2726C12.4841 14.7607 12.2214 14.3774 11.8102 14.2139C11.3861 14.045 10.8895 14.1341 10.3321 14.5881C9.66913 15.1284 8.98984 15.5181 8.35547 15.7088C7.92124 15.8394 7.51753 15.8747 7.16821 15.7974C6.84555 15.726 6.55599 15.5523 6.3191 15.2612C6.12391 15.0213 5.95967 14.6981 5.8352 14.2836C5.50222 13.1741 5.04993 12.838 4.50478 13.0235C4.11204 13.1574 3.85795 13.651 3.65975 14.3314Z" fill="#272727"/>
<path fill-rule="evenodd" clip-rule="evenodd" d="M4.25981 14.5051C3.06851 18.5929 7.56508 20.8272 10.5209 19.7982C12.3351 19.1665 12.8179 13.3682 10.7267 15.0727C8.51115 16.8784 6.05034 17.1703 5.23772 14.4622C4.83845 13.1316 4.54664 13.5213 4.25981 14.5051Z" fill="white"/>
<path fill-rule="evenodd" clip-rule="evenodd" d="M4.25994 14.5051C3.06863 18.5929 7.56521 20.8272 10.521 19.7982C11.1671 19.5731 11.6441 18.6931 11.8965 17.7298L11.7565 17.7472C8.23809 20.5468 3.81149 18.0731 4.59616 13.7013C4.47939 13.8411 4.36934 14.1298 4.25994 14.5051Z" fill="#CACACA"/>
<path fill-rule="evenodd" clip-rule="evenodd" d="M5.88781 19.1068L5.89778 19.1139C6.01909 19.1958 6.14446 19.2728 6.27289 19.3445L6.28388 19.3504C6.33272 19.3777 6.38218 19.404 6.43205 19.4297L6.43917 19.4332C6.51814 19.4737 6.59812 19.5122 6.67913 19.5489L6.69744 19.557C6.74222 19.577 6.7874 19.5963 6.83259 19.6153L6.86841 19.63C6.91237 19.6479 6.95654 19.6652 7.00131 19.6819L7.0235 19.6905L7.10369 19.7198C7.13238 19.73 7.16108 19.74 7.18978 19.7495L7.19059 19.75L7.26407 19.774L7.30416 19.7866C7.34263 19.7986 7.38089 19.8103 7.41916 19.8215L7.47411 19.8372L7.55918 19.8604L7.6349 19.8799L7.70328 19.8964L7.78612 19.9154L7.85674 19.9303L7.93612 19.9461L8.00226 19.9586C8.03483 19.9645 8.06739 19.97 8.10016 19.9753L8.14819 19.9828C8.18523 19.9885 8.22228 19.9938 8.25932 19.9987L8.30898 20.005C8.3446 20.0095 8.38021 20.0136 8.41583 20.0173L8.45369 20.0211C8.48992 20.0248 8.52574 20.0278 8.56197 20.0307L8.60369 20.0338C8.64317 20.0364 8.68266 20.0388 8.72194 20.0407L8.76203 20.0423C8.80416 20.0441 8.84629 20.0454 8.88822 20.0462L8.9104 20.0464C8.94928 20.047 8.98836 20.047 9.02723 20.0466L9.05756 20.0464C9.09887 20.0458 9.14039 20.0446 9.1815 20.0429L9.21631 20.0415C9.25823 20.0395 9.30036 20.0372 9.34188 20.034L9.36855 20.0321C9.41169 20.0289 9.45484 20.025 9.49758 20.0207L9.50206 20.0203H9.50348L9.51142 20.0193C9.55416 20.0148 9.5967 20.0095 9.63903 20.004L9.66081 20.0012C9.70396 19.9952 9.74711 19.9887 9.78985 19.9816L9.81427 19.9777C9.85742 19.9702 9.90036 19.9624 9.94311 19.9541L9.96142 19.9502C10.0017 19.9419 10.0422 19.9331 10.0821 19.9239L10.0986 19.9201C10.1407 19.9101 10.1827 19.8995 10.2242 19.8883L10.2486 19.8816C10.2887 19.8708 10.3286 19.8592 10.3683 19.8469L10.3955 19.8384C10.4371 19.8255 10.4782 19.8121 10.5191 19.7978C10.547 19.7883 10.5744 19.7773 10.6017 19.765L10.604 19.764C10.6302 19.7522 10.6563 19.7396 10.6819 19.7257L10.6882 19.7222C10.7137 19.7082 10.7385 19.6933 10.7633 19.6774L10.7672 19.675C10.792 19.6587 10.8166 19.6418 10.8409 19.6236L10.8468 19.6194C10.871 19.601 10.8946 19.5823 10.9182 19.5621L10.9192 19.5613L10.9211 19.5597C10.9443 19.5397 10.9675 19.5189 10.9903 19.4971L10.9949 19.4926C11.0175 19.4708 11.0401 19.448 11.0623 19.4246L11.067 19.4195C11.0886 19.3963 11.1097 19.3724 11.1307 19.3478L11.1388 19.3382C11.1592 19.314 11.1795 19.2891 11.1993 19.2634L11.2062 19.2543C11.2259 19.2286 11.2451 19.2025 11.2642 19.1756L11.2721 19.1644C11.2894 19.1398 11.3065 19.1143 11.3236 19.0886L11.3358 19.0697C11.3523 19.0438 11.3688 19.0177 11.3849 18.9909L11.3953 18.9735C11.4122 18.9452 11.4287 18.9163 11.4449 18.8874L11.4539 18.8713C11.4702 18.8415 11.4863 18.8112 11.5021 18.7804L11.5101 18.7651C11.5239 18.738 11.5375 18.7101 11.551 18.6822L11.5687 18.6451C11.5803 18.6201 11.5919 18.595 11.6033 18.5697L11.6159 18.541C11.6281 18.5133 11.6401 18.485 11.6519 18.4565L11.6658 18.4226L11.6998 18.3373L11.7122 18.3043C11.7232 18.2751 11.7339 18.246 11.7445 18.2167L11.7557 18.1849C11.7655 18.1568 11.7753 18.1285 11.7846 18.0999L11.7991 18.0557L11.8241 17.9769L11.8377 17.9319L11.8605 17.8536L11.8746 17.8033L11.8945 17.7295L11.7547 17.7469C9.89446 19.227 7.78062 19.2329 6.31705 18.2637C5.98713 18.4139 5.61162 18.5102 5.20396 18.5418C5.41156 18.7506 5.64154 18.9393 5.88781 19.1068Z" fill="#CACACA"/>
<path d="M26.9365 15.4002C26.8624 15.3323 26.8194 15.2982 26.9125 15.3307C26.9413 15.341 26.9431 15.3632 26.9365 15.4002ZM28.0502 18.3356C28.3492 17.5022 28.4116 16.5433 28.1381 15.4796C27.9611 14.7918 27.7198 14.2914 27.323 14.1517C26.7901 13.9642 26.3321 14.2929 25.9666 15.3857C25.8295 15.7955 25.6547 16.1172 25.4508 16.3589C25.194 16.6633 24.8841 16.8405 24.5424 16.9076C24.1708 16.9809 23.751 16.9335 23.3083 16.7852C22.7066 16.5836 22.0704 16.2 21.4523 15.6776C20.9026 15.2127 20.4051 15.1193 19.9743 15.2881C19.5621 15.4495 19.2909 15.8325 19.1457 16.3448C19.0359 16.733 18.9946 17.2177 19.0173 17.7296C19.0841 19.2336 19.7455 21.0581 20.8857 21.4681C21.9103 21.8364 23.1049 21.8535 24.2268 21.5644C25.0612 21.3495 25.8605 20.9657 26.5246 20.432C27.2042 19.8861 27.7468 19.1811 28.0502 18.3356ZM27.0093 16.1547C27.1206 16.8111 27.0617 17.4002 26.877 17.9148C26.6569 18.5285 26.2528 19.0484 25.7426 19.4584C25.2169 19.8808 24.5824 20.185 23.9188 20.3561C23.0282 20.5855 22.0933 20.5768 21.3062 20.2937C20.6858 20.0709 20.3126 18.7759 20.2636 17.6757C20.2466 17.294 20.2737 16.9453 20.3481 16.6825C20.3875 16.5437 20.4169 16.4572 20.4289 16.4526C20.431 16.4519 20.4961 16.5049 20.6459 16.6316C21.3814 17.2536 22.1579 17.7164 22.9124 17.9694C23.56 18.1862 24.1947 18.2516 24.7819 18.1359C25.3987 18.0145 25.9525 17.7011 26.4039 17.1662C26.6375 16.8893 26.8413 16.5535 27.0093 16.1547Z" fill="#272727"/>
<path fill-rule="evenodd" clip-rule="evenodd" d="M27.5349 15.6337C28.5884 19.7294 24.0172 21.9309 21.0964 20.8807C19.3036 20.236 19.0161 14.435 21.0496 16.1544C23.2042 17.9761 25.6548 18.2854 26.5585 15.5836C27.0026 14.2559 27.2813 14.6477 27.5349 15.6337Z" fill="white"/>
<path fill-rule="evenodd" clip-rule="evenodd" d="M27.5349 15.6336C28.5884 19.7294 24.0171 21.9309 21.0964 20.8807C20.458 20.6511 20.0105 19.7675 19.7907 18.8027L19.93 18.821C23.3538 21.6455 27.8632 19.2043 27.2258 14.8272C27.3377 14.9679 27.4381 15.2573 27.5349 15.6336Z" fill="#CACACA"/>
<path d="M8.66605 17.9252C8.38438 18.0211 8.01466 18.0535 7.45934 17.9045C6.62577 17.681 5.8693 17.6652 5.1841 17.8969C4.48722 18.1326 3.89275 18.6131 3.39922 19.3775C3.08641 19.862 2.97234 20.2961 3.0042 20.6499C3.03071 20.9465 3.14893 21.1902 3.33841 21.3742C3.51962 21.5503 3.7541 21.6601 4.02361 21.6972C4.41109 21.7507 4.88881 21.6497 5.36799 21.3698C6.28329 20.8349 6.69169 21.0337 7.17987 21.2715C7.42991 21.3933 7.69334 21.5216 8.00468 21.6178C7.69602 21.7433 7.36862 21.7965 7.04657 21.7518C6.3008 21.6482 5.74233 21.7426 5.37917 21.9547C5.11064 22.1117 4.93235 22.3329 4.84429 22.5983C4.75843 22.8573 4.76865 23.1337 4.87373 23.4096C5.02599 23.8097 5.40082 24.23 5.98508 24.5737C7.39732 25.4046 8.69305 25.5965 9.87008 25.3718C10.4405 25.2629 10.9768 25.0563 11.4808 24.7779C11.205 25.2671 10.8435 25.5901 10.5563 25.8467C9.88078 26.4501 9.43176 26.8517 9.99388 27.7002C10.0926 27.8494 10.2269 27.9693 10.3938 28.0623C10.5251 28.1356 10.6754 28.1909 10.8428 28.2294C11.0259 28.2718 11.2147 28.2974 11.4071 28.3076C12.6505 28.3738 14.0032 27.7647 15.0852 26.9282C15.7694 26.3994 16.3565 25.7673 16.7488 25.1476C17.0881 25.6135 17.4921 26.0385 17.9409 26.4175C18.8103 27.152 19.8544 27.7191 20.924 28.0801L20.9314 28.0825C21.6839 28.3247 22.4012 28.2827 22.8869 28.0652C23.1422 27.951 23.3482 27.7867 23.4869 27.5831C23.6507 27.3424 23.7186 27.0633 23.6682 26.7595C23.6068 26.39 23.3617 26.0013 22.8793 25.643L22.8762 25.6409C22.3376 25.2174 21.9725 24.781 21.7428 24.3343C21.689 24.23 21.6424 24.1246 21.6026 24.0183C22.4665 24.3303 23.2956 24.4907 24.0987 24.4824C25.2673 24.4705 26.36 24.107 27.4001 23.3431C27.7654 23.0748 27.9968 22.7678 28.0955 22.474C28.1753 22.2361 28.1762 22.0026 28.1001 21.7876C28.02 21.5616 27.8656 21.3759 27.6395 21.2464C27.3881 21.1024 27.0379 21.0334 26.6021 21.0767C24.958 21.2406 24.1783 20.4164 23.4833 19.6818C23.142 19.321 22.8163 18.9765 22.4252 18.72C23.9253 16.8161 24.717 14.3786 24.7312 12.0003C24.7387 10.7434 24.531 9.50242 24.0982 8.36414C23.6602 7.21223 22.9915 6.16112 22.0821 5.29846C20.6154 3.90696 18.5361 3.01655 15.8068 3.00024C14.4416 2.99196 13.2251 3.20403 12.1604 3.59068C10.3546 4.24638 8.98712 5.39829 8.06817 6.82802C7.15627 8.24678 6.69047 9.93825 6.68001 11.6872C6.67271 12.8949 6.88311 14.1298 7.31389 15.319C7.52915 15.9128 7.76607 16.456 8.0582 16.9785L8.07863 17.0124C8.25352 17.3223 8.44714 17.6245 8.66605 17.9252ZM9.79905 18.7525L9.91143 18.6834C9.95278 18.6621 9.99218 18.6358 10.0292 18.6046C10.294 18.3802 10.3271 17.9834 10.1029 17.718C9.72462 17.2729 9.42398 16.8407 9.17271 16.3961L9.15544 16.3628C8.89566 15.8982 8.68526 15.4164 8.49481 14.8904C8.1139 13.8398 7.92831 12.7522 7.93463 11.6921C7.94363 10.1822 8.34327 8.72523 9.12601 7.50782C9.90145 6.30136 11.0583 5.32841 12.5883 4.77278C13.5201 4.43434 14.592 4.24881 15.8018 4.25612C18.1788 4.27024 19.9698 5.02698 21.2161 6.20957C21.9822 6.93636 22.5484 7.82921 22.9223 8.81239C23.3013 9.80921 23.4831 10.8956 23.4766 11.9954C23.4624 14.3572 22.5871 16.7799 20.9361 18.5234C20.895 18.5681 20.8588 18.6189 20.8303 18.6761C20.6911 18.9547 20.7785 19.2875 21.0224 19.4646L21.0293 19.4697C21.099 19.5191 21.1798 19.5551 21.2688 19.5728C21.7408 19.6687 22.1405 20.0912 22.5731 20.5486C23.4564 21.4822 24.4462 22.5281 26.6487 22.3346C25.8313 22.9328 24.9843 23.2174 24.0889 23.2265C23.1578 23.2361 22.1525 22.9539 21.0564 22.421C20.9707 22.3803 20.8747 22.3578 20.7735 22.3594C20.4271 22.3648 20.1507 22.6504 20.156 22.9971C20.1678 23.6517 20.3071 24.2914 20.6258 24.9105C20.9349 25.5111 21.411 26.0863 22.1014 26.629L22.1315 26.6528C22.276 26.7602 22.3631 26.8435 22.403 26.9045L22.3752 26.9176C22.143 27.0215 21.7596 27.0286 21.3162 26.8862C20.3955 26.5745 19.4985 26.0871 18.7526 25.4572C18.0916 24.8989 17.5538 24.2325 17.2323 23.4838C17.1483 23.254 16.9337 23.0848 16.6742 23.0716C16.3278 23.054 16.0325 23.3208 16.0148 23.6675C16.0127 23.7108 16.005 23.7601 15.9923 23.8146C15.8484 24.4385 15.1874 25.261 14.3176 25.9334C13.4452 26.6076 12.39 27.1006 11.4711 27.0516C11.3538 27.0455 11.2376 27.0296 11.1232 27.0031C11.0914 26.9958 11.0644 26.9883 11.0427 26.9807C11.0734 26.9448 11.2371 26.9215 11.3927 26.7826C12.0724 26.1753 13.0682 25.2854 13.1533 23.2661H13.1523C13.1587 23.1067 13.1044 22.9448 12.9886 22.8179C12.7549 22.5623 12.3582 22.5446 12.1028 22.7786C11.3696 23.4495 10.547 23.9621 9.63876 24.1355C8.74388 24.3064 7.74028 24.1494 6.61969 23.4901C6.33437 23.3223 6.15267 23.156 6.07459 23.0148C6.2271 22.9575 6.48956 22.9445 6.87436 22.9978C7.49826 23.0847 8.11366 22.9658 8.66921 22.7011L8.66872 22.7001C9.22793 22.4333 9.72973 22.0158 10.1165 21.513C10.2349 21.3789 10.2957 21.1954 10.268 21.0045C10.2177 20.6603 9.89805 20.4223 9.55435 20.4726C8.67943 20.6006 8.17568 20.3553 7.7308 20.1388C6.91279 19.7404 6.22905 19.4073 4.73338 20.2813C4.54316 20.3924 4.38068 20.448 4.26125 20.4536C4.28193 20.3583 4.34249 20.227 4.45219 20.0573C4.78227 19.5462 5.15783 19.2323 5.58252 19.0887C6.01913 18.9412 6.53674 18.9607 7.13462 19.1212C8.57897 19.5087 9.24058 19.0987 9.79905 18.7525Z" fill="#272727"/>
<path fill-rule="evenodd" clip-rule="evenodd" d="M9.62514 18.1243C9.13371 18.4131 8.61953 18.867 7.29884 18.5126C5.86723 18.1287 4.75117 18.4417 3.92742 19.7172C3.15135 20.919 4.01056 21.4343 5.05258 20.8253C7.22984 19.5531 7.25572 21.4458 9.64742 21.0955C9.00792 21.9476 7.98794 22.5173 6.96221 22.3746C5.11943 22.1184 4.95698 23.239 6.30426 24.0317C8.83733 25.5221 10.902 24.7295 12.5279 23.2412C12.4007 26.2568 9.89325 26.407 10.5198 27.3529C10.6041 27.4801 10.7625 27.5648 10.9849 27.6161C13.332 28.1586 16.559 25.301 16.6441 23.6994C17.4 25.4948 19.2172 26.8399 21.1252 27.484C22.6075 27.9611 23.7965 27.105 22.5072 26.1478C21.2598 25.1736 20.8057 24.1075 20.7853 22.9872C23.1464 24.1352 25.1702 24.202 27.0304 22.8357C27.8152 22.2592 27.6597 21.6029 26.6656 21.702C23.4809 22.0194 23.1214 19.308 21.3938 18.9569L21.3931 18.9566C26.1459 13.9369 24.8778 3.68275 15.8062 3.62807C8.71873 3.58514 5.98535 9.80351 7.90624 15.1045C8.31212 16.2246 8.80067 17.1537 9.62514 18.1243Z" fill="white"/>
<path fill-rule="evenodd" clip-rule="evenodd" d="M9.625 18.1243C9.13355 18.4132 8.61926 18.8669 7.29883 18.5126C5.86718 18.1286 4.75107 18.4417 3.92743 19.7172C3.65139 20.1449 3.58222 20.4855 3.6548 20.7197C4.06129 19.583 5.45536 18.2414 7.16732 18.69C8.34322 18.9979 9.02894 18.8716 9.625 18.1243Z" fill="white"/>
<path fill-rule="evenodd" clip-rule="evenodd" d="M9.64714 21.0959C9.00792 21.948 7.98776 22.5176 6.96215 22.3748C6.15183 22.2623 5.66677 22.4156 5.49163 22.6904C6.22447 22.5016 6.4553 22.6154 6.97526 22.6602C8.68045 22.807 10.8087 21.1431 10.765 19.6776C10.3925 20.1502 10.0198 20.6231 9.64714 21.0959Z" fill="white"/>
<path fill-rule="evenodd" clip-rule="evenodd" d="M11.4204 27.6783C13.7116 27.8162 16.5634 25.2039 16.6433 23.6996L16.8333 22.941L16.8359 22.3988C15.7968 25.5449 13.753 26.6993 11.4204 27.6783Z" fill="#CACACA"/>
<path fill-rule="evenodd" clip-rule="evenodd" d="M6.61768 20.3982C7.43373 20.5218 7.95224 21.2463 9.38033 21.1263L10.6523 19.3763C8.41229 20.5571 7.80746 19.5554 6.61768 20.398V20.3982Z" fill="white"/>
<path fill-rule="evenodd" clip-rule="evenodd" d="M10.2357 24.6338C10.9029 24.4274 11.5197 24.0688 12.0876 23.6176C12.2756 22.7866 12.4963 22.2207 13.0859 21.1412C11.2209 21.6571 10.6596 22.7806 10.2357 24.6338Z" fill="white"/>
<path fill-rule="evenodd" clip-rule="evenodd" d="M16.6895 23.8038C17.0776 24.6701 17.7135 25.4283 18.4844 26.0493C18.0513 24.4593 19.0326 22.7559 16.892 21.4809C16.8707 22.3328 16.7616 23.0373 16.6895 23.8038Z" fill="white"/>
<path fill-rule="evenodd" clip-rule="evenodd" d="M4.14277 21.0742C4.39545 21.0992 4.71556 21.0221 5.05163 20.8257C7.12056 19.6167 7.247 21.2658 9.30669 21.1318C9.63415 20.7176 9.96181 20.3032 10.2891 19.8888C8.73894 20.7944 7.55514 19.5854 6.06341 19.777C5.38917 19.8638 4.98084 20.4998 4.14277 21.0742Z" fill="#CACACA"/>
<path fill-rule="evenodd" clip-rule="evenodd" d="M5.42008 23.0139C5.45567 23.3307 5.75392 23.7086 6.30332 24.0319C8.69221 25.4373 10.6641 24.8124 12.2446 23.4888C12.3783 22.5838 12.4171 22.1809 12.8613 21.3541C11.8329 22.0091 11.1458 23.2375 9.93053 23.7484C8.68614 24.2714 6.94533 24.0962 5.42008 23.0139Z" fill="#CACACA"/>
<path fill-rule="evenodd" clip-rule="evenodd" d="M16.7928 24.0207C17.6203 25.6553 19.3325 26.8794 21.1251 27.4844C21.2988 27.5404 21.4686 27.5778 21.6309 27.5991C17.002 24.639 19.0175 23.9211 17.0496 22.0565L16.7928 24.0207Z" fill="#CACACA"/>
<path fill-rule="evenodd" clip-rule="evenodd" d="M20.9047 23.0453C23.2139 24.1369 25.2003 24.1785 27.0285 22.8357C27.1325 22.7592 27.2198 22.6815 27.291 22.6043C25.3114 23.35 23.5313 23.1526 22.7182 22.8365C21.5121 22.3676 21.419 21.3904 20.0765 20.8026C20.7777 21.6352 20.8663 22.1551 20.9047 23.0453Z" fill="#CACACA"/>
<path d="M19.0633 20.2771C19.0466 20.3871 19.3013 20.5444 19.6445 20.7866C20.0244 21.0555 20.2826 21.3778 20.4589 21.7892C20.6442 22.2212 20.7597 22.7565 20.8165 23.4285C20.8311 23.5995 20.9663 23.7233 21.1372 23.7065C21.3083 23.6896 21.4353 23.5372 21.4207 23.3662C21.3582 22.6283 21.2449 22.0337 21.0325 21.5379C20.8404 21.0904 20.3633 20.5415 19.9225 20.3188C19.6274 20.1697 19.1042 20.0051 19.0633 20.2771Z" fill="#272727"/>
<path d="M17.1494 21.4778C16.902 20.9116 16.2135 20.8988 16.5783 21.7339C16.7078 22.0306 16.758 22.4292 16.737 22.8762C16.715 23.3512 16.6176 23.9016 16.441 24.4183C16.385 24.5818 16.4644 24.7336 16.6272 24.7875C16.7898 24.8414 16.9673 24.7524 17.0233 24.5889C17.2179 24.0204 17.3328 23.4337 17.3581 22.8957C17.3833 22.3562 17.317 21.8624 17.1494 21.4778Z" fill="#272727"/>
<path d="M12.9334 20.8816C12.4814 21.2364 12.2762 21.7261 12.1082 22.3585C11.97 22.8784 11.8605 23.4476 11.8447 23.8215C11.8377 23.9932 11.9711 24.1363 12.1426 24.141C12.314 24.1456 12.4588 24.0101 12.4656 23.8385C12.5459 23.1524 12.7423 21.7927 13.3048 21.1678C13.7261 20.6999 13.2259 20.6523 12.9334 20.8816Z" fill="#272727"/>
<path d="M10.7144 19.2607C10.5743 19.1864 10.3937 19.5572 10.1687 19.8656C9.73467 20.461 9.30041 20.8371 8.66421 21.2285C8.37409 21.4065 8.61911 22.0153 8.78736 21.9121C9.51837 21.4623 10.2245 20.8609 10.6245 20.0995C10.7968 19.7711 10.9034 19.3524 10.7144 19.2607Z" fill="#272727"/>
<path fill-rule="evenodd" clip-rule="evenodd" d="M19.7797 9.60631C19.083 9.58113 18.5234 10.2244 18.5297 11.0433C18.5361 11.8623 19.106 12.5464 19.8027 12.5716C20.4995 12.5965 21.059 11.9533 21.0527 11.1345C21.0463 10.3156 20.4765 9.63149 19.7797 9.60631Z" fill="#272727"/>
<path fill-rule="evenodd" clip-rule="evenodd" d="M19.519 10.1539C19.2302 10.1435 18.9982 10.4104 19.0008 10.7497C19.0035 11.0893 19.2398 11.3729 19.5286 11.3835C19.8175 11.3939 20.0495 11.1272 20.0469 10.7875C20.0442 10.4481 19.8079 10.1645 19.519 10.1539Z" fill="white"/>
<path fill-rule="evenodd" clip-rule="evenodd" d="M12.4609 8.93147C13.2432 8.95986 13.7988 9.73112 13.7019 10.6543C13.6048 11.5772 12.8923 12.3027 12.11 12.2741C11.3277 12.2457 10.7723 11.4746 10.8692 10.5515C10.9661 9.62834 11.6786 8.90309 12.4609 8.93147Z" fill="#272727"/>
<path fill-rule="evenodd" clip-rule="evenodd" d="M12.692 9.57092C13.0164 9.5825 13.2466 9.90233 13.2064 10.2849C13.1664 10.6678 12.8708 10.9685 12.5467 10.9567C12.2221 10.9449 11.9919 10.6251 12.0321 10.2425C12.0723 9.85966 12.3676 9.55913 12.692 9.57092Z" fill="white"/>
<path fill-rule="evenodd" clip-rule="evenodd" d="M13.2357 6.0067C12.9603 6.16555 12.7991 6.42472 12.8752 6.58561C12.9513 6.74672 13.2359 6.7483 13.5113 6.58945C13.7865 6.43082 13.9479 6.17165 13.8718 6.01076C13.7955 5.84988 13.5109 5.84807 13.2357 6.0067Z" fill="white"/>
<path fill-rule="evenodd" clip-rule="evenodd" d="M21.0692 19.6276C20.9643 19.6826 20.9771 19.8478 21.0981 19.9965C21.2192 20.1452 21.4023 20.2212 21.5071 20.1662C21.6122 20.111 21.5991 19.9459 21.4782 19.7972C21.3571 19.6485 21.174 19.5725 21.0692 19.6276Z" fill="white"/>
<path fill-rule="evenodd" clip-rule="evenodd" d="M14.7122 21.3068C14.8629 21.2948 14.9572 21.4844 14.9225 21.7297C14.8877 21.9754 14.7374 22.1839 14.5867 22.1958C14.4359 22.2077 14.3418 22.0182 14.3764 21.7727C14.4111 21.5272 14.5615 21.3186 14.7122 21.3068Z" fill="white"/>
<path fill-rule="evenodd" clip-rule="evenodd" d="M14.3626 23.5151C14.5135 23.5031 14.6075 23.6926 14.5729 23.9382C14.5382 24.1837 14.3878 24.3924 14.237 24.4043C14.0862 24.4161 13.9921 24.2265 14.0268 23.981C14.0615 23.7356 14.2119 23.5268 14.3626 23.5151Z" fill="white"/>
<path fill-rule="evenodd" clip-rule="evenodd" d="M6.33165 16.7162C6.48263 16.7258 6.55104 16.9013 6.48403 17.1085C6.41721 17.3154 6.2405 17.4755 6.08951 17.4659C5.93833 17.4563 5.87011 17.2808 5.93693 17.0736C6.00375 16.8665 6.18046 16.7066 6.33165 16.7162Z" fill="white"/>
<path fill-rule="evenodd" clip-rule="evenodd" d="M7.0952 16.756C7.19834 16.7624 7.24487 16.8824 7.19931 17.0237C7.15356 17.1651 7.03297 17.2744 6.92983 17.2678C6.8267 17.2612 6.78017 17.1413 6.82573 17C6.87148 16.8587 6.99207 16.7494 7.0952 16.756Z" fill="white"/>
<path d="M15.6858 14.5479C16.2007 14.6484 16.7587 14.5266 17.2846 14.1674C17.4107 14.0813 17.4743 13.8803 17.4262 13.7182C17.3784 13.5559 17.2373 13.495 17.1107 13.5814C16.2579 14.1634 15.3005 13.9773 14.7282 13.1165C14.6435 12.9889 14.4896 12.9926 14.3845 13.1247C14.2791 13.2568 14.2626 13.467 14.3471 13.5942C14.6998 14.1248 15.1712 14.4475 15.6858 14.5479Z" fill="#272727"/>
</g>
<defs>
<filter id="filter0_b_71_317" x="-1" y="-1" width="33.3125" height="33.3125" filterUnits="userSpaceOnUse" color-interpolation-filters="sRGB">
<feFlood flood-opacity="0" result="BackgroundImageFix"/>
<feGaussianBlur in="BackgroundImageFix" stdDeviation="2"/>
<feComposite in2="SourceAlpha" operator="in" result="effect1_backgroundBlur_71_317"/>
<feBlend mode="normal" in="SourceGraphic" in2="effect1_backgroundBlur_71_317" result="shape"/>
</filter>
<linearGradient id="paint0_linear_71_317" x1="16" y1="0" x2="16" y2="32" gradientUnits="userSpaceOnUse">
<stop stop-color="#EB4E3D"/>
<stop offset="1" stop-color="#C13838"/>
</linearGradient>
</defs>
</svg>
