<svg width="16" height="16" viewBox="0 0 16 16" fill="none" xmlns="http://www.w3.org/2000/svg">
<path fill-rule="evenodd" clip-rule="evenodd" d="M16 4.98305C16 4.79311 16.0001 4.60315 15.9989 4.41319C15.998 4.25317 15.9961 4.09319 15.9918 3.93325C15.9824 3.58465 15.9618 3.23306 15.8998 2.88834C15.8369 2.53865 15.7343 2.2132 15.5724 1.89547C15.4134 1.58318 15.2056 1.29741 14.9577 1.04967C14.7098 0.801919 14.424 0.59427 14.1116 0.435299C13.7935 0.273455 13.4677 0.170815 13.1176 0.107961C12.7729 0.0460581 12.4212 0.0255339 12.0726 0.0161164C11.9125 0.0117864 11.7525 0.00996113 11.5924 0.00897084C11.4023 0.0078058 11.2123 0.00790288 11.0222 0.00790288L8.81547 0H7.165L4.9973 0.00790288C4.80688 0.00790288 4.61645 0.0078058 4.42603 0.00897084C4.2656 0.00996113 4.10525 0.0117864 3.94488 0.0161164C3.59547 0.0255339 3.24299 0.0460775 2.89742 0.108058C2.54687 0.170893 2.22059 0.273494 1.9021 0.435222C1.58904 0.594211 1.30257 0.801881 1.05419 1.04967C0.805839 1.29739 0.597665 1.5831 0.438307 1.89533C0.276056 2.21322 0.173183 2.53886 0.110155 2.88875C0.0480967 3.23333 0.0275338 3.5848 0.0180775 3.93325C0.0137669 4.09321 0.0119028 4.25319 0.010932 4.41319C0.00976692 4.60317 0 4.83915 0 5.02911L5.8252e-05 7.16677L0 8.83492L0.00986401 11.018C0.00986401 11.2082 0.00978634 11.3984 0.010932 11.5886C0.0119028 11.7489 0.0137669 11.9091 0.018097 12.0692C0.0275338 12.4183 0.0481356 12.7704 0.110252 13.1156C0.173261 13.4657 0.276114 13.7916 0.43823 14.1098C0.597607 14.4225 0.805819 14.7086 1.05419 14.9567C1.30255 15.2048 1.58894 15.4128 1.90195 15.572C2.22062 15.734 2.54707 15.8368 2.89782 15.8997C3.24324 15.9617 3.5956 15.9823 3.94488 15.9917C4.10525 15.996 4.26562 15.9979 4.42604 15.9989C4.61647 16 4.80688 15.9999 4.9973 15.9999L7.18459 16H8.83916L11.0222 15.9999C11.2123 15.9999 11.4023 16 11.5924 15.9989C11.7525 15.9979 11.9125 15.996 12.0726 15.9917C12.4213 15.9823 12.7731 15.9617 13.118 15.8997C13.4679 15.8367 13.7935 15.734 14.1114 15.572C14.4239 15.4128 14.7098 15.2049 14.9577 14.9567C15.2056 14.7087 15.4133 14.4226 15.5724 14.1099C15.7343 13.7916 15.837 13.4655 15.8999 13.1152C15.9618 12.7701 15.9824 12.4181 15.9918 12.0692C15.9961 11.909 15.998 11.7489 15.9989 11.5886C16.0001 11.3984 16 11.2082 16 11.018C16 11.018 15.9999 8.87346 15.9999 8.83492V7.16502C15.9999 7.13656 16 4.98305 16 4.98305" fill="url(#paint0_linear_79_395)"/>
<mask id="mask0_79_395" style="mask-type:luminance" maskUnits="userSpaceOnUse" x="0" y="0" width="16" height="16">
<path fill-rule="evenodd" clip-rule="evenodd" d="M16 4.98305C16 4.79311 16.0001 4.60315 15.9989 4.41319C15.998 4.25317 15.9961 4.09319 15.9918 3.93325C15.9824 3.58465 15.9618 3.23306 15.8998 2.88834C15.8369 2.53865 15.7343 2.2132 15.5724 1.89547C15.4134 1.58318 15.2056 1.29741 14.9577 1.04967C14.7098 0.801919 14.424 0.59427 14.1116 0.435299C13.7935 0.273455 13.4677 0.170815 13.1176 0.107961C12.7729 0.0460581 12.4212 0.0255339 12.0726 0.0161164C11.9125 0.0117864 11.7525 0.00996113 11.5924 0.00897084C11.4023 0.0078058 11.2123 0.00790288 11.0222 0.00790288L8.81547 0H7.165L4.9973 0.00790288C4.80688 0.00790288 4.61645 0.0078058 4.42603 0.00897084C4.2656 0.00996113 4.10525 0.0117864 3.94488 0.0161164C3.59547 0.0255339 3.24299 0.0460775 2.89742 0.108058C2.54687 0.170893 2.22059 0.273494 1.9021 0.435222C1.58904 0.594211 1.30257 0.801881 1.05419 1.04967C0.805839 1.29739 0.597665 1.5831 0.438307 1.89533C0.276056 2.21322 0.173183 2.53886 0.110155 2.88875C0.0480967 3.23333 0.0275338 3.5848 0.0180775 3.93325C0.0137669 4.09321 0.0119028 4.25319 0.010932 4.41319C0.00976692 4.60317 0 4.83915 0 5.02911L5.8252e-05 7.16677L0 8.83492L0.00986401 11.018C0.00986401 11.2082 0.00978634 11.3984 0.010932 11.5886C0.0119028 11.7489 0.0137669 11.9091 0.018097 12.0692C0.0275338 12.4183 0.0481356 12.7704 0.110252 13.1156C0.173261 13.4657 0.276114 13.7916 0.43823 14.1098C0.597607 14.4225 0.805819 14.7086 1.05419 14.9567C1.30255 15.2048 1.58894 15.4128 1.90195 15.572C2.22062 15.734 2.54707 15.8368 2.89782 15.8997C3.24324 15.9617 3.5956 15.9823 3.94488 15.9917C4.10525 15.996 4.26562 15.9979 4.42604 15.9989C4.61647 16 4.80688 15.9999 4.9973 15.9999L7.18459 16H8.83916L11.0222 15.9999C11.2123 15.9999 11.4023 16 11.5924 15.9989C11.7525 15.9979 11.9125 15.996 12.0726 15.9917C12.4213 15.9823 12.7731 15.9617 13.118 15.8997C13.4679 15.8367 13.7935 15.734 14.1114 15.572C14.4239 15.4128 14.7098 15.2049 14.9577 14.9567C15.2056 14.7087 15.4133 14.4226 15.5724 14.1099C15.7343 13.7916 15.837 13.4655 15.8999 13.1152C15.9618 12.7701 15.9824 12.4181 15.9918 12.0692C15.9961 11.909 15.998 11.7489 15.9989 11.5886C16.0001 11.3984 16 11.2082 16 11.018C16 11.018 15.9999 8.87346 15.9999 8.83492V7.16502C15.9999 7.13656 16 4.98305 16 4.98305" fill="white"/>
</mask>
<g mask="url(#mask0_79_395)">
</g>
<path d="M13.0964 7.31339C13.0511 7.29788 13.072 7.31329 13.109 7.34399C13.1102 7.32736 13.1082 7.31737 13.0964 7.31339ZM13.1187 8.57252C13.2065 8.31964 13.2286 8.02788 13.1606 7.70165C13.0864 7.8922 12.9935 8.05308 12.8851 8.18631C12.6838 8.43369 12.4334 8.58211 12.1513 8.64455C11.8817 8.70422 11.5902 8.683 11.2919 8.59334C10.9172 8.48071 10.5254 8.25822 10.1509 7.953C10.0752 7.89139 10.0423 7.86558 10.0411 7.86609C10.0395 7.8667 10.0294 7.90373 10.0138 7.96443C9.9833 8.08327 9.97556 8.24496 9.9886 8.42471C10.0265 8.9516 10.2273 9.57796 10.5324 9.68415C10.9267 9.82136 11.3916 9.81666 11.8249 9.69017C12.121 9.60377 12.3995 9.46105 12.6278 9.26866C12.8489 9.08218 13.0231 8.84796 13.1187 8.57252ZM13.6871 7.37205C13.8388 7.89231 13.8182 8.36126 13.6771 8.76737C13.5452 9.14716 13.3079 9.46778 13.0077 9.72087C12.7147 9.96785 12.3616 10.1498 11.9894 10.2585C11.4432 10.418 10.8494 10.4212 10.3378 10.2431C9.7909 10.0527 9.44909 9.18011 9.39773 8.46653C9.38061 8.22915 9.39416 8.00248 9.44145 7.81825C9.50371 7.57556 9.62825 7.39388 9.8232 7.31635C10.0243 7.23627 10.2597 7.2785 10.5239 7.49375C10.8382 7.7499 11.1603 7.93464 11.461 8.02502C11.6669 8.08695 11.8582 8.10368 12.0238 8.06705C12.1768 8.03319 12.3141 7.95086 12.4264 7.81284C12.5189 7.6991 12.5968 7.54587 12.6558 7.3494C12.8136 6.82342 13.0281 6.66408 13.2865 6.75202C13.4727 6.81547 13.5932 7.04948 13.6871 7.37205Z" fill="#272727"/>
<path fill-rule="evenodd" clip-rule="evenodd" d="M13.4022 7.45412C13.967 9.39202 11.8352 10.4512 10.434 9.96341C9.57393 9.66394 9.345 6.91511 10.3364 7.72316C11.3867 8.57923 12.5534 8.71761 12.9386 7.43376C13.1279 6.80294 13.2662 6.98769 13.4022 7.45412Z" fill="white"/>
<path fill-rule="evenodd" clip-rule="evenodd" d="M13.4035 7.45412C13.9683 9.39202 11.8365 10.4512 10.4353 9.96341C10.129 9.8567 9.90285 9.43951 9.7832 8.98285L9.84955 8.99107C11.5176 10.3183 13.6161 9.14559 13.2441 7.07302C13.2995 7.13933 13.3516 7.27616 13.4035 7.45412Z" fill="#CACACA"/>
<path fill-rule="evenodd" clip-rule="evenodd" d="M12.6308 9.63586L12.6261 9.63925C12.5686 9.67807 12.5092 9.71458 12.4483 9.74858L12.4431 9.75138C12.4199 9.76432 12.3965 9.77678 12.3728 9.78895L12.3694 9.79059C12.332 9.80981 12.2941 9.82807 12.2557 9.84545L12.247 9.84932C12.2258 9.85878 12.2044 9.86796 12.1829 9.87694L12.166 9.88389C12.1451 9.89239 12.1242 9.9006 12.103 9.90852L12.0924 9.91258L12.0544 9.92649C12.0408 9.93132 12.0272 9.93605 12.0136 9.94059L12.0132 9.94078L11.9784 9.95218L11.9594 9.95817C11.9411 9.96387 11.923 9.96937 11.9049 9.97468L11.8788 9.98212L11.8385 9.99313L11.8026 10.0024L11.7702 10.0102L11.7309 10.0192L11.6974 10.0263L11.6598 10.0338L11.6284 10.0397C11.613 10.0425 11.5976 10.0451 11.582 10.0476L11.5592 10.0512C11.5417 10.0539 11.5241 10.0564 11.5066 10.0587L11.483 10.0617C11.4661 10.0638 11.4493 10.0658 11.4324 10.0675L11.4144 10.0693C11.3972 10.0711 11.3803 10.0725 11.3631 10.0739L11.3433 10.0753C11.3246 10.0766 11.3059 10.0777 11.2872 10.0786L11.2682 10.0794C11.2483 10.0802 11.2283 10.0808 11.2084 10.0812L11.1979 10.0813C11.1795 10.0816 11.1609 10.0816 11.1425 10.0814L11.1281 10.0813C11.1086 10.081 11.0889 10.0804 11.0694 10.0797L11.0529 10.079C11.033 10.078 11.013 10.077 10.9933 10.0754L10.9807 10.0746C10.9603 10.073 10.9398 10.0712 10.9195 10.0691L10.9174 10.0689H10.9167L10.913 10.0685C10.8927 10.0663 10.8725 10.0638 10.8525 10.0612L10.8422 10.0599C10.8217 10.0571 10.8012 10.054 10.781 10.0506L10.7694 10.0488C10.7489 10.0452 10.7286 10.0415 10.7083 10.0376L10.6996 10.0357C10.6805 10.0318 10.6613 10.0276 10.6424 10.0233L10.6346 10.0214C10.6146 10.0167 10.5948 10.0117 10.5751 10.0064L10.5635 10.0032C10.5445 9.99806 10.5256 9.99255 10.5068 9.98676L10.4938 9.9827C10.4741 9.97661 10.4547 9.97024 10.4353 9.96348C10.422 9.95894 10.409 9.95372 10.3961 9.94793L10.395 9.94745C10.3826 9.94184 10.3702 9.93586 10.3581 9.92929L10.3551 9.92765C10.343 9.92098 10.3313 9.91393 10.3195 9.9064L10.3176 9.90524C10.3059 9.89751 10.2942 9.8895 10.2827 9.8809L10.2799 9.87887C10.2684 9.87018 10.2572 9.86129 10.2461 9.85173L10.2456 9.85134L10.2447 9.85057C10.2337 9.84111 10.2227 9.83126 10.2119 9.82092L10.2097 9.8188C10.199 9.80846 10.1883 9.79764 10.1777 9.78654L10.1755 9.78412C10.1653 9.77311 10.1553 9.76181 10.1453 9.75012L10.1415 9.74559C10.1318 9.73409 10.1222 9.72231 10.1128 9.71014L10.1095 9.70579C10.1002 9.69362 10.0911 9.68126 10.082 9.66851L10.0783 9.6632C10.0701 9.65151 10.062 9.63944 10.0539 9.62727L10.0481 9.61829C10.0402 9.60602 10.0324 9.59366 10.0248 9.58091L10.0199 9.5727C10.0119 9.55927 10.0041 9.54556 9.99634 9.53184L9.9921 9.52421C9.98438 9.51011 9.97676 9.49572 9.96923 9.48114L9.96547 9.47389C9.95891 9.46105 9.95244 9.44782 9.94607 9.43458L9.93768 9.41701C9.93218 9.40513 9.92668 9.39325 9.92128 9.38127L9.91529 9.36765C9.9095 9.35452 9.90381 9.34109 9.89822 9.32757L9.89165 9.31154L9.87554 9.27107L9.86966 9.25542C9.86445 9.24161 9.85933 9.2278 9.85431 9.21389L9.84901 9.19882C9.84438 9.18549 9.83974 9.17207 9.83531 9.15855L9.82846 9.13759L9.81659 9.10021L9.81012 9.07886L9.79932 9.04178L9.79266 9.01792L9.7832 8.98296L9.84949 8.99117C10.7314 9.69285 11.7335 9.69565 12.4273 9.2362C12.5837 9.30738 12.7618 9.35307 12.955 9.36804C12.8566 9.46704 12.7476 9.55647 12.6308 9.63586Z" fill="#CACACA"/>
<path d="M2.65234 7.87875C2.68745 7.8466 2.70782 7.8304 2.66371 7.84585C2.65007 7.85069 2.64921 7.86121 2.65234 7.87875ZM2.12437 9.27039C1.9826 8.87527 1.95302 8.42069 2.08268 7.91642C2.16661 7.59037 2.28097 7.3531 2.46912 7.28687C2.72171 7.19801 2.93887 7.35385 3.11213 7.87191C3.17714 8.06616 3.25998 8.21867 3.35666 8.33325C3.47838 8.47757 3.6253 8.56159 3.78731 8.59341C3.96349 8.62815 4.1625 8.60568 4.37234 8.53536C4.65763 8.43982 4.95924 8.25792 5.25224 8.01029C5.51286 7.78989 5.74868 7.74563 5.95292 7.82564C6.14832 7.90214 6.27689 8.0837 6.34573 8.32657C6.39779 8.51064 6.4174 8.74039 6.40663 8.98309C6.37493 9.69608 6.06139 10.5611 5.52083 10.7554C5.03513 10.93 4.46879 10.9381 3.93693 10.8011C3.54134 10.6992 3.16244 10.5172 2.84758 10.2642C2.52543 10.0054 2.26818 9.67119 2.12437 9.27039ZM2.61782 8.23646C2.56503 8.54764 2.59299 8.82692 2.68051 9.07087C2.78488 9.36184 2.97646 9.6083 3.21834 9.80264C3.46755 10.0029 3.76836 10.1471 4.08295 10.2282C4.50515 10.337 4.94836 10.3329 5.3215 10.1987C5.61561 10.093 5.79257 9.4791 5.81576 8.95754C5.82385 8.77656 5.81101 8.61128 5.77571 8.48667C5.75702 8.42086 5.74309 8.37985 5.73742 8.37768C5.73642 8.37735 5.70555 8.40249 5.63454 8.46253C5.28585 8.75743 4.91771 8.97683 4.56004 9.09676C4.25304 9.19957 3.95213 9.23055 3.67378 9.17568C3.38138 9.11814 3.11882 8.96956 2.90483 8.71601C2.7941 8.58472 2.69747 8.42554 2.61782 8.23646Z" fill="#272727"/>
<path fill-rule="evenodd" clip-rule="evenodd" d="M2.3682 7.98916C1.86877 9.93086 4.03586 10.9745 5.42053 10.4766C6.27045 10.171 6.40672 7.42091 5.44272 8.23601C4.42128 9.09964 3.25948 9.24629 2.83109 7.96544C2.62055 7.33601 2.4884 7.52176 2.3682 7.98916Z" fill="white"/>
<path fill-rule="evenodd" clip-rule="evenodd" d="M2.36821 7.98912C1.86877 9.93083 4.03588 10.9745 5.42053 10.4766C5.72319 10.3678 5.93529 9.94889 6.03952 9.49153L5.97349 9.5002C4.35036 10.8392 2.21256 9.6819 2.51471 7.60685C2.46166 7.67352 2.41407 7.81074 2.36821 7.98912Z" fill="#CACACA"/>
<path d="M11.314 9.07565C11.4475 9.12113 11.6228 9.13648 11.8861 9.06584C12.2813 8.95987 12.6399 8.95237 12.9647 9.06226C13.2951 9.17399 13.5769 9.40177 13.8109 9.76417C13.9592 9.99385 14.0133 10.1996 13.9982 10.3673C13.9856 10.508 13.9295 10.6235 13.8397 10.7107C13.7538 10.7942 13.6426 10.8463 13.5149 10.8638C13.3312 10.8892 13.1047 10.8414 12.8775 10.7086C12.4436 10.4551 12.25 10.5493 12.0186 10.662C11.9 10.7198 11.7752 10.7806 11.6276 10.8262C11.7739 10.8857 11.9291 10.9109 12.0818 10.8897C12.4353 10.8406 12.7001 10.8854 12.8722 10.986C12.9995 11.0604 13.0841 11.1652 13.1258 11.2911C13.1665 11.4138 13.1617 11.5449 13.1119 11.6757C13.0397 11.8653 12.862 12.0646 12.585 12.2275C11.9155 12.6214 11.3012 12.7124 10.7432 12.6059C10.4728 12.5542 10.2185 12.4563 9.97962 12.3244C10.1104 12.5562 10.2817 12.7094 10.4179 12.831C10.7381 13.1171 10.951 13.3075 10.6845 13.7097C10.6377 13.7805 10.5741 13.8373 10.495 13.8814C10.4327 13.9162 10.3614 13.9424 10.2821 13.9606C10.1953 13.9807 10.1058 13.9928 10.0146 13.9977C9.42508 14.029 8.78382 13.7403 8.27088 13.3438C7.94648 13.0931 7.66818 12.7934 7.48221 12.4996C7.32134 12.7205 7.12981 12.9219 6.91706 13.1016C6.50488 13.4499 6.00991 13.7187 5.50282 13.8898L5.49932 13.891C5.14262 14.0058 4.80255 13.9859 4.57229 13.8828C4.45127 13.8286 4.35358 13.7507 4.28781 13.6542C4.2102 13.5401 4.17799 13.4078 4.20191 13.2638C4.23099 13.0886 4.34721 12.9043 4.5759 12.7345L4.57735 12.7334C4.8327 12.5327 5.00575 12.3258 5.11466 12.114C5.14018 12.0646 5.16226 12.0146 5.18112 11.9642C4.77157 12.1122 4.37851 12.1882 3.99778 12.1842C3.44378 12.1786 2.92576 12.0063 2.4327 11.6441C2.25951 11.5169 2.1498 11.3714 2.10304 11.2321C2.06519 11.1193 2.06478 11.0087 2.10086 10.9067C2.13882 10.7996 2.21199 10.7115 2.31918 10.6501C2.43836 10.5819 2.60442 10.5491 2.81099 10.5697C3.59044 10.6474 3.96007 10.2567 4.28953 9.90839C4.45133 9.73737 4.60574 9.57407 4.79118 9.45244C4.08002 8.54987 3.70468 7.39431 3.69794 6.26681C3.69439 5.67097 3.79285 5.08263 3.99804 4.543C4.20568 3.99691 4.52269 3.4986 4.95384 3.08964C5.64916 2.42997 6.63489 2.00785 7.92876 2.00011C8.57598 1.99619 9.15271 2.09672 9.65743 2.28003C10.5135 2.59087 11.1618 3.13697 11.5975 3.81476C12.0298 4.48736 12.2506 5.28925 12.2555 6.11837C12.259 6.69089 12.1593 7.27635 11.955 7.8401C11.853 8.12163 11.7407 8.37915 11.6022 8.62686L11.5925 8.64291C11.5096 8.78985 11.4178 8.93309 11.314 9.07565ZM10.7769 9.46786L10.7236 9.43508C10.704 9.425 10.6853 9.41255 10.6678 9.39773C10.5422 9.29135 10.5265 9.10323 10.6329 8.97742C10.8122 8.76641 10.9547 8.56153 11.0738 8.35076L11.082 8.33494C11.2052 8.1147 11.3049 7.88627 11.3952 7.63695C11.5758 7.13887 11.6638 6.62325 11.6608 6.12068C11.6565 5.40491 11.467 4.71418 11.096 4.13704C10.7283 3.56509 10.1799 3.10384 9.4546 2.84043C9.01284 2.67999 8.50468 2.59203 7.93113 2.59549C6.80429 2.60219 5.95519 2.96094 5.36435 3.52157C5.00117 3.86613 4.73274 4.2894 4.55549 4.7555C4.37582 5.22807 4.28964 5.74311 4.29271 6.2645C4.29945 7.38416 4.71442 8.53267 5.49711 9.35923C5.51661 9.38041 5.53374 9.40451 5.54726 9.43163C5.61323 9.56372 5.57182 9.72147 5.45619 9.80542L5.4529 9.80784C5.41988 9.83129 5.38159 9.84832 5.33936 9.85674C5.11563 9.90218 4.92615 10.1025 4.72106 10.3193C4.3023 10.7619 3.83308 11.2578 2.78891 11.166C3.17642 11.4496 3.57795 11.5846 4.00246 11.5889C4.44384 11.5934 4.92044 11.4596 5.44008 11.207C5.48069 11.1877 5.5262 11.177 5.57419 11.1778C5.7384 11.1804 5.86944 11.3157 5.86692 11.4801C5.86131 11.7905 5.79527 12.0937 5.6442 12.3872C5.49765 12.6719 5.27198 12.9446 4.94468 13.2019L4.93041 13.2132C4.8619 13.2641 4.82058 13.3036 4.80168 13.3325L4.81487 13.3387C4.92496 13.388 5.10668 13.3914 5.3169 13.3238C5.75338 13.1761 6.17865 12.945 6.53224 12.6464C6.84559 12.3817 7.10056 12.0658 7.25299 11.7108C7.29278 11.6019 7.39452 11.5217 7.51754 11.5154C7.68176 11.5071 7.82179 11.6336 7.83014 11.7979C7.83117 11.8184 7.83482 11.8418 7.84081 11.8677C7.90905 12.1634 8.2224 12.5534 8.63475 12.8721C9.04835 13.1918 9.54858 13.4255 9.98423 13.4023C10.0398 13.3993 10.0949 13.3918 10.1491 13.3792C10.1642 13.3758 10.177 13.3722 10.1873 13.3686C10.1728 13.3516 10.0952 13.3406 10.0214 13.2747C9.69918 12.9868 9.22709 12.5649 9.18673 11.6076H9.18719C9.18419 11.532 9.20991 11.4553 9.26479 11.3952C9.37561 11.274 9.56369 11.2656 9.68476 11.3765C10.0323 11.6946 10.4223 11.9376 10.8529 12.0198C11.2771 12.1008 11.7529 12.0264 12.2841 11.7138C12.4194 11.6343 12.5055 11.5554 12.5426 11.4885C12.4703 11.4613 12.3458 11.4552 12.1634 11.4804C11.8676 11.5216 11.5759 11.4652 11.3125 11.3398L11.3127 11.3393C11.0476 11.2128 10.8098 11.0149 10.6264 10.7766C10.5703 10.7129 10.5414 10.626 10.5546 10.5355C10.5784 10.3723 10.73 10.2595 10.8929 10.2833C11.3077 10.344 11.5465 10.2277 11.7574 10.1251C12.1452 9.93621 12.4693 9.77829 13.1784 10.1926C13.2686 10.2453 13.3456 10.2717 13.4022 10.2743C13.3924 10.2291 13.3637 10.1669 13.3117 10.0864C13.1552 9.84412 12.9772 9.69532 12.7758 9.62723C12.5689 9.55731 12.3235 9.56658 12.04 9.64265C11.3553 9.82634 11.0416 9.63198 10.7769 9.46786Z" fill="#272727"/>
<path fill-rule="evenodd" clip-rule="evenodd" d="M10.859 9.17036C11.092 9.30725 11.3357 9.52242 11.9618 9.35444C12.6405 9.1724 13.1696 9.32078 13.5601 9.92548C13.928 10.4952 13.5207 10.7395 13.0267 10.4508C11.9945 9.84768 11.9823 10.745 10.8484 10.5789C11.1516 10.9829 11.6351 11.2529 12.1214 11.1853C12.995 11.0639 13.072 11.5951 12.4333 11.9709C11.2325 12.6774 10.2537 12.3017 9.48286 11.5961C9.54318 13.0258 10.7319 13.0969 10.4349 13.5454C10.3949 13.6057 10.3198 13.6458 10.2144 13.6701C9.10166 13.9274 7.57184 12.5726 7.5315 11.8134C7.17312 12.6645 6.31164 13.3022 5.40712 13.6075C4.70437 13.8337 4.14073 13.4279 4.75193 12.9741C5.34329 12.5122 5.55858 12.0068 5.56827 11.4757C4.44891 12.02 3.48946 12.0516 2.6076 11.4039C2.23556 11.1306 2.30929 10.8195 2.78056 10.8664C4.29035 11.0169 4.46075 9.7315 5.2798 9.56506L5.28013 9.5649C3.02691 7.18522 3.62809 2.32397 7.92871 2.29805C11.2887 2.2777 12.5845 5.22567 11.6739 7.73872C11.4815 8.26972 11.2499 8.7102 10.859 9.17036Z" fill="white"/>
<path fill-rule="evenodd" clip-rule="evenodd" d="M10.8594 9.16997C11.0924 9.30694 11.3362 9.52203 11.9621 9.35405C12.6409 9.172 13.17 9.32042 13.5604 9.92514C13.6913 10.1279 13.7241 10.2894 13.6897 10.4004C13.497 9.86152 12.8361 9.22549 12.0245 9.43814C11.467 9.58413 11.142 9.52426 10.8594 9.16997Z" fill="white"/>
<path fill-rule="evenodd" clip-rule="evenodd" d="M10.8486 10.5785C11.1516 10.9825 11.6353 11.2525 12.1215 11.1848C12.5056 11.1315 12.7356 11.2042 12.8186 11.3345C12.4712 11.245 12.3618 11.2989 12.1153 11.3201C11.3069 11.3897 10.2979 10.6009 10.3187 9.90617C10.4953 10.1302 10.6719 10.3544 10.8486 10.5785Z" fill="white"/>
<path fill-rule="evenodd" clip-rule="evenodd" d="M10.0088 13.6992C8.92257 13.7645 7.57063 12.5261 7.53275 11.8129L7.44266 11.4533L7.44141 11.1963C7.93406 12.6878 8.90297 13.235 10.0088 13.6992Z" fill="#CACACA"/>
<path fill-rule="evenodd" clip-rule="evenodd" d="M12.2838 10.2481C11.897 10.3067 11.6511 10.6501 10.9741 10.5933L10.3711 9.76365C11.433 10.3235 11.7198 9.84854 12.2838 10.248V10.2481Z" fill="white"/>
<path fill-rule="evenodd" clip-rule="evenodd" d="M10.57 12.2559C10.2537 12.158 9.96128 11.988 9.69205 11.7741C9.60291 11.3802 9.4983 11.1119 9.21875 10.6001C10.1029 10.8447 10.369 11.3773 10.57 12.2559Z" fill="white"/>
<path fill-rule="evenodd" clip-rule="evenodd" d="M7.51108 11.8627C7.32705 12.2734 7.02562 12.6328 6.66016 12.9272C6.86544 12.1735 6.40024 11.3659 7.41506 10.7615C7.42516 11.1653 7.47689 11.4993 7.51108 11.8627Z" fill="white"/>
<path fill-rule="evenodd" clip-rule="evenodd" d="M13.4587 10.5686C13.3389 10.5805 13.1872 10.5439 13.0279 10.4508C12.047 9.87764 11.9871 10.6594 11.0106 10.5959C10.8554 10.3995 10.7001 10.2031 10.5449 10.0066C11.2798 10.4359 11.841 9.86279 12.5482 9.95359C12.8678 9.99476 13.0614 10.2963 13.4587 10.5686Z" fill="#CACACA"/>
<path fill-rule="evenodd" clip-rule="evenodd" d="M12.8519 11.4881C12.8351 11.6383 12.6937 11.8174 12.4332 11.9707C11.3007 12.637 10.3658 12.3407 9.6166 11.7132C9.55323 11.2842 9.53483 11.0932 9.32422 10.7012C9.81177 11.0117 10.1375 11.5941 10.7136 11.8363C11.3036 12.0843 12.1288 12.0012 12.8519 11.4881Z" fill="#CACACA"/>
<path fill-rule="evenodd" clip-rule="evenodd" d="M7.46158 11.9652C7.06929 12.7401 6.25758 13.3204 5.40775 13.6073C5.32538 13.6338 5.24488 13.6515 5.16797 13.6616C7.36238 12.2583 6.40688 11.918 7.33984 11.034L7.46158 11.9652Z" fill="#CACACA"/>
<path fill-rule="evenodd" clip-rule="evenodd" d="M5.51196 11.5031C4.41722 12.0206 3.47555 12.0403 2.60882 11.4037C2.55952 11.3675 2.51813 11.3306 2.48438 11.294C3.42287 11.6476 4.26676 11.554 4.65221 11.4041C5.22402 11.1818 5.26814 10.7185 5.90459 10.4399C5.57216 10.8346 5.53014 11.0811 5.51196 11.5031Z" fill="#CACACA"/>
<path d="M6.38572 10.1909C6.39363 10.243 6.27287 10.3176 6.11021 10.4324C5.93009 10.5599 5.80768 10.7127 5.72408 10.9077C5.63626 11.1125 5.58151 11.3663 5.55457 11.6849C5.54765 11.7659 5.48355 11.8246 5.40252 11.8167C5.32142 11.8087 5.2612 11.7364 5.26812 11.6554C5.29777 11.3055 5.35146 11.0236 5.45219 10.7886C5.54324 10.5765 5.76941 10.3162 5.97838 10.2107C6.11831 10.14 6.36635 10.0619 6.38572 10.1909Z" fill="#272727"/>
<path d="M7.29282 10.7599C7.41009 10.4915 7.7365 10.4855 7.56353 10.8813C7.50215 11.022 7.47836 11.211 7.48829 11.4229C7.49874 11.6481 7.5449 11.909 7.62864 12.1539C7.65521 12.2315 7.61755 12.3034 7.54038 12.329C7.46328 12.3545 7.37914 12.3123 7.35258 12.2348C7.26033 11.9653 7.20585 11.6872 7.19386 11.4321C7.18193 11.1764 7.21333 10.9422 7.29282 10.7599Z" fill="#272727"/>
<path d="M9.28997 10.4772C9.50426 10.6454 9.60152 10.8776 9.68119 11.1774C9.74672 11.4239 9.7986 11.6937 9.80609 11.871C9.8094 11.9523 9.74618 12.0202 9.6649 12.0224C9.58361 12.0246 9.51499 11.9604 9.51175 11.879C9.47369 11.5538 9.38059 10.9092 9.11389 10.6129C8.91419 10.3911 9.15133 10.3685 9.28997 10.4772Z" fill="#272727"/>
<path d="M10.3424 9.70866C10.4088 9.67346 10.4944 9.84922 10.601 9.99546C10.8068 10.2777 11.0127 10.456 11.3143 10.6416C11.4518 10.7259 11.3357 11.0146 11.2559 10.9656C10.9094 10.7524 10.5746 10.4673 10.385 10.1063C10.3033 9.95064 10.2527 9.75217 10.3424 9.70866Z" fill="#272727"/>
<path fill-rule="evenodd" clip-rule="evenodd" d="M6.04492 5.132C6.37519 5.12007 6.6405 5.42503 6.63749 5.81327C6.63447 6.2015 6.36432 6.52582 6.034 6.53775C5.70367 6.54959 5.43842 6.24463 5.44143 5.85649C5.44445 5.46825 5.71461 5.14394 6.04492 5.132Z" fill="#272727"/>
<path fill-rule="evenodd" clip-rule="evenodd" d="M6.16821 5.39156C6.30512 5.38664 6.4151 5.51316 6.41387 5.67402C6.41263 5.83499 6.3006 5.96946 6.16369 5.97447C6.02672 5.97939 5.91674 5.85297 5.91798 5.69191C5.91922 5.53104 6.03125 5.39657 6.16821 5.39156Z" fill="white"/>
<path fill-rule="evenodd" clip-rule="evenodd" d="M9.51541 4.81194C9.14455 4.8254 8.88115 5.19103 8.92708 5.62867C8.9731 6.06622 9.31089 6.41014 9.68175 6.39659C10.0526 6.38313 10.3159 6.01759 10.27 5.57995C10.2241 5.14231 9.88627 4.79848 9.51541 4.81194Z" fill="#272727"/>
<path fill-rule="evenodd" clip-rule="evenodd" d="M9.40422 5.11485C9.25044 5.12034 9.14131 5.27197 9.16036 5.45335C9.17932 5.63483 9.31943 5.7774 9.47312 5.77181C9.62699 5.76623 9.73612 5.61461 9.71707 5.43322C9.69801 5.25174 9.55799 5.10927 9.40422 5.11485Z" fill="white"/>
<path fill-rule="evenodd" clip-rule="evenodd" d="M9.14838 3.42557C9.27894 3.50088 9.35534 3.62375 9.31928 3.70002C9.28322 3.77639 9.14827 3.77714 9.01771 3.70184C8.88726 3.62664 8.81075 3.50377 8.84681 3.4275C8.88298 3.35123 9.01793 3.35037 9.14838 3.42557Z" fill="white"/>
<path fill-rule="evenodd" clip-rule="evenodd" d="M5.43268 9.88268C5.48243 9.90876 5.47632 9.98705 5.41898 10.0576C5.36158 10.1281 5.27477 10.1641 5.22509 10.138C5.17527 10.1119 5.18145 10.0336 5.23878 9.96306C5.29618 9.89256 5.383 9.85654 5.43268 9.88268Z" fill="white"/>
<path fill-rule="evenodd" clip-rule="evenodd" d="M8.44685 10.6789C8.3754 10.6732 8.33072 10.7631 8.34715 10.8794C8.36365 10.9958 8.43489 11.0947 8.50634 11.1003C8.57787 11.106 8.62247 11.0161 8.60604 10.8998C8.58961 10.7834 8.5183 10.6845 8.44685 10.6789Z" fill="white"/>
<path fill-rule="evenodd" clip-rule="evenodd" d="M8.61288 11.7257C8.54132 11.72 8.49677 11.8098 8.51316 11.9263C8.52961 12.0426 8.6009 12.1416 8.67239 12.1472C8.74389 12.1528 8.7885 12.0629 8.77205 11.9466C8.75559 11.8302 8.68431 11.7312 8.61288 11.7257Z" fill="white"/>
<path fill-rule="evenodd" clip-rule="evenodd" d="M12.4204 8.50279C12.3488 8.50734 12.3164 8.59053 12.3481 8.68878C12.3798 8.78684 12.4636 8.86275 12.5352 8.8582C12.6068 8.85366 12.6392 8.77046 12.6075 8.67222C12.5758 8.57406 12.4921 8.49825 12.4204 8.50279Z" fill="white"/>
<path fill-rule="evenodd" clip-rule="evenodd" d="M12.0596 8.52142C12.0107 8.52446 11.9886 8.58131 12.0102 8.64829C12.0319 8.71536 12.0891 8.76715 12.138 8.76403C12.1869 8.7609 12.2089 8.70404 12.1873 8.63707C12.1657 8.57009 12.1085 8.51829 12.0596 8.52142Z" fill="white"/>
<path d="M7.9866 7.47475C7.74249 7.52238 7.47799 7.46463 7.22866 7.29437C7.16888 7.25355 7.13874 7.15827 7.16155 7.08143C7.18421 7.00447 7.25108 6.97561 7.3111 7.01655C7.71542 7.29247 8.16925 7.20424 8.44059 6.79614C8.48076 6.73565 8.55369 6.7374 8.60353 6.80004C8.6535 6.86269 8.66133 6.96232 8.62125 7.02262C8.45406 7.27416 8.23058 7.42714 7.9866 7.47475Z" fill="#272727"/>
<defs>
<linearGradient id="paint0_linear_79_395" x1="8" y1="0" x2="8" y2="16" gradientUnits="userSpaceOnUse">
<stop stop-color="#EB4E3D"/>
<stop offset="1" stop-color="#C13838"/>
</linearGradient>
</defs>
</svg>
