<svg width="5222" height="1076" viewBox="0 0 5222 1076" fill="none" xmlns="http://www.w3.org/2000/svg">
<path d="M1426 255.4C1485.2 255.4 1536.93 267.133 1581.2 290.6C1625.47 314.067 1659.6 347.133 1683.6 389.8C1708.13 431.933 1720.4 480.733 1720.4 536.2C1720.4 591.133 1708.13 639.933 1683.6 682.6C1659.6 725.267 1625.2 758.333 1580.4 781.8C1536.13 805.267 1484.67 817 1426 817H1215.6V255.4H1426ZM1417.2 698.6C1468.93 698.6 1509.2 684.467 1538 656.2C1566.8 627.933 1581.2 587.933 1581.2 536.2C1581.2 484.467 1566.8 444.2 1538 415.4C1509.2 386.6 1468.93 372.2 1417.2 372.2H1352.4V698.6H1417.2ZM1984.05 823.4C1940.32 823.4 1900.85 814.067 1865.65 795.4C1830.98 776.733 1803.52 750.067 1783.25 715.4C1763.52 680.733 1753.65 640.2 1753.65 593.8C1753.65 547.933 1763.78 507.667 1784.05 473C1804.32 437.8 1832.05 410.867 1867.25 392.2C1902.45 373.533 1941.92 364.2 1985.65 364.2C2029.38 364.2 2068.85 373.533 2104.05 392.2C2139.25 410.867 2166.98 437.8 2187.25 473C2207.52 507.667 2217.65 547.933 2217.65 593.8C2217.65 639.667 2207.25 680.2 2186.45 715.4C2166.18 750.067 2138.18 776.733 2102.45 795.4C2067.25 814.067 2027.78 823.4 1984.05 823.4ZM1984.05 705C2010.18 705 2032.32 695.4 2050.45 676.2C2069.12 657 2078.45 629.533 2078.45 593.8C2078.45 558.067 2069.38 530.6 2051.25 511.4C2033.65 492.2 2011.78 482.6 1985.65 482.6C1958.98 482.6 1936.85 492.2 1919.25 511.4C1901.65 530.067 1892.85 557.533 1892.85 593.8C1892.85 629.533 1901.38 657 1918.45 676.2C1936.05 695.4 1957.92 705 1984.05 705ZM2247.03 593.8C2247.03 547.4 2256.36 506.867 2275.03 472.2C2294.23 437.533 2320.63 410.867 2354.23 392.2C2388.36 373.533 2427.29 364.2 2471.03 364.2C2527.03 364.2 2573.69 378.867 2611.03 408.2C2648.89 437.533 2673.69 478.867 2685.43 532.2H2539.83C2527.56 498.067 2503.83 481 2468.63 481C2443.56 481 2423.56 490.867 2408.63 510.6C2393.69 529.8 2386.23 557.533 2386.23 593.8C2386.23 630.067 2393.69 658.067 2408.63 677.8C2423.56 697 2443.56 706.6 2468.63 706.6C2503.83 706.6 2527.56 689.533 2539.83 655.4H2685.43C2673.69 707.667 2648.89 748.733 2611.03 778.6C2573.16 808.467 2526.49 823.4 2471.03 823.4C2427.29 823.4 2388.36 814.067 2354.23 795.4C2320.63 776.733 2294.23 750.067 2275.03 715.4C2256.36 680.733 2247.03 640.2 2247.03 593.8ZM2991.4 701V817H2921.8C2872.2 817 2833.53 805 2805.8 781C2778.07 756.467 2764.2 716.733 2764.2 661.8V484.2H2709.8V370.6H2764.2V261.8H2901V370.6H2990.6V484.2H2901V663.4C2901 676.733 2904.2 686.333 2910.6 692.2C2917 698.067 2927.67 701 2942.6 701H2991.4ZM3254.8 823.4C3211.07 823.4 3171.6 814.067 3136.4 795.4C3101.73 776.733 3074.27 750.067 3054 715.4C3034.27 680.733 3024.4 640.2 3024.4 593.8C3024.4 547.933 3034.53 507.667 3054.8 473C3075.07 437.8 3102.8 410.867 3138 392.2C3173.2 373.533 3212.67 364.2 3256.4 364.2C3300.13 364.2 3339.6 373.533 3374.8 392.2C3410 410.867 3437.73 437.8 3458 473C3478.27 507.667 3488.4 547.933 3488.4 593.8C3488.4 639.667 3478 680.2 3457.2 715.4C3436.93 750.067 3408.93 776.733 3373.2 795.4C3338 814.067 3298.53 823.4 3254.8 823.4ZM3254.8 705C3280.93 705 3303.07 695.4 3321.2 676.2C3339.87 657 3349.2 629.533 3349.2 593.8C3349.2 558.067 3340.13 530.6 3322 511.4C3304.4 492.2 3282.53 482.6 3256.4 482.6C3229.73 482.6 3207.6 492.2 3190 511.4C3172.4 530.067 3163.6 557.533 3163.6 593.8C3163.6 629.533 3172.13 657 3189.2 676.2C3206.8 695.4 3228.67 705 3254.8 705ZM3681.78 433.8C3695.11 413 3713.51 396.2 3736.98 383.4C3760.44 370.6 3787.91 364.2 3819.38 364.2C3856.18 364.2 3889.51 373.533 3919.38 392.2C3949.24 410.867 3972.71 437.533 3989.78 472.2C4007.38 506.867 4016.18 547.133 4016.18 593C4016.18 638.867 4007.38 679.4 3989.78 714.6C3972.71 749.267 3949.24 776.2 3919.38 795.4C3889.51 814.067 3856.18 823.4 3819.38 823.4C3788.44 823.4 3760.98 817 3736.98 804.2C3713.51 791.4 3695.11 774.867 3681.78 754.6V1029.8H3544.98V370.6H3681.78V433.8ZM3876.98 593C3876.98 558.867 3867.38 532.2 3848.18 513C3829.51 493.267 3806.31 483.4 3778.58 483.4C3751.38 483.4 3728.18 493.267 3708.98 513C3690.31 532.733 3680.98 559.667 3680.98 593.8C3680.98 627.933 3690.31 654.867 3708.98 674.6C3728.18 694.333 3751.38 704.2 3778.58 704.2C3805.78 704.2 3828.98 694.333 3848.18 674.6C3867.38 654.333 3876.98 627.133 3876.98 593ZM4512.74 370.6V817H4375.94V756.2C4362.08 775.933 4343.14 791.933 4319.14 804.2C4295.68 815.933 4269.54 821.8 4240.74 821.8C4206.61 821.8 4176.48 814.333 4150.34 799.4C4124.21 783.933 4103.94 761.8 4089.54 733C4075.14 704.2 4067.94 670.333 4067.94 631.4V370.6H4203.94V613C4203.94 642.867 4211.68 666.067 4227.14 682.6C4242.61 699.133 4263.41 707.4 4289.54 707.4C4316.21 707.4 4337.28 699.133 4352.74 682.6C4368.21 666.067 4375.94 642.867 4375.94 613V370.6H4512.74ZM4776.61 823.4C4737.67 823.4 4703.01 816.733 4672.61 803.4C4642.21 790.067 4618.21 771.933 4600.61 749C4583.01 725.533 4573.14 699.4 4571.01 670.6H4706.21C4707.81 686.067 4715.01 698.6 4727.81 708.2C4740.61 717.8 4756.34 722.6 4775.01 722.6C4792.07 722.6 4805.14 719.4 4814.21 713C4823.81 706.067 4828.61 697.267 4828.61 686.6C4828.61 673.8 4821.94 664.467 4808.61 658.6C4795.27 652.2 4773.67 645.267 4743.81 637.8C4711.81 630.333 4685.14 622.6 4663.81 614.6C4642.47 606.067 4624.07 593 4608.61 575.4C4593.14 557.267 4585.41 533 4585.41 502.6C4585.41 477 4592.34 453.8 4606.21 433C4620.61 411.667 4641.41 394.867 4668.61 382.6C4696.34 370.333 4729.14 364.2 4767.01 364.2C4823.01 364.2 4867.01 378.067 4899.01 405.8C4931.54 433.533 4950.21 470.333 4955.01 516.2H4828.61C4826.47 500.733 4819.54 488.467 4807.81 479.4C4796.61 470.333 4781.67 465.8 4763.01 465.8C4747.01 465.8 4734.74 469 4726.21 475.4C4717.67 481.267 4713.41 489.533 4713.41 500.2C4713.41 513 4720.07 522.6 4733.41 529C4747.27 535.4 4768.61 541.8 4797.41 548.2C4830.47 556.733 4857.41 565.267 4878.21 573.8C4899.01 581.8 4917.14 595.133 4932.61 613.8C4948.61 631.933 4956.87 656.467 4957.41 687.4C4957.41 713.533 4949.94 737 4935.01 757.8C4920.61 778.067 4899.54 794.067 4871.81 805.8C4844.61 817.533 4812.87 823.4 4776.61 823.4Z" fill="white"/>
<g filter="url(#filter0_d_65_157)">
<path fill-rule="evenodd" clip-rule="evenodd" d="M970.922 374.737C970.922 364.458 970.926 354.179 970.863 343.899C970.811 335.239 970.712 326.582 970.476 317.927C969.968 299.062 968.855 280.036 965.5 261.381C962.097 242.458 956.541 224.846 947.785 207.652C939.177 190.752 927.933 175.288 914.516 161.881C901.103 148.474 885.635 137.237 868.729 128.634C851.517 119.876 833.886 114.322 814.942 110.92C796.285 107.571 777.254 106.46 758.389 105.95C749.728 105.716 741.066 105.617 732.402 105.564C722.118 105.501 711.833 105.506 701.548 105.506L582.129 105.078H492.814L375.508 105.506C365.203 105.506 354.898 105.501 344.594 105.564C335.912 105.617 327.235 105.716 318.556 105.95C299.648 106.46 280.573 107.572 261.872 110.926C242.903 114.326 225.246 119.878 208.011 128.63C191.069 137.234 175.567 148.472 162.126 161.881C148.686 175.287 137.421 190.748 128.797 207.645C120.017 224.847 114.45 242.469 111.039 261.403C107.681 280.05 106.568 299.071 106.056 317.927C105.823 326.583 105.722 335.24 105.67 343.899C105.607 354.18 105.078 366.95 105.078 377.229L105.081 492.91L105.078 583.182L105.612 701.32C105.612 711.613 105.608 721.907 105.67 732.2C105.722 740.871 105.823 749.54 106.057 758.208C106.568 777.097 107.683 796.15 111.044 814.83C114.454 833.779 120.02 851.416 128.793 868.632C137.418 885.556 148.685 901.04 162.126 914.466C175.566 927.892 191.064 939.143 208.002 947.759C225.248 956.528 242.913 962.09 261.895 965.496C280.587 968.851 299.655 969.964 318.556 970.473C327.235 970.708 335.913 970.807 344.595 970.86C354.9 970.923 365.203 970.919 375.508 970.919L493.874 970.922H583.411L701.548 970.918C711.833 970.918 722.118 970.923 732.402 970.86C741.066 970.807 749.728 970.708 758.389 970.473C777.261 969.963 796.299 968.849 814.964 965.491C833.897 962.086 851.519 956.526 868.721 947.762C885.631 939.147 901.102 927.894 914.516 914.466C927.93 901.042 939.174 885.56 947.782 868.639C956.543 851.415 962.099 833.769 965.504 814.808C968.856 796.136 969.968 777.089 970.477 758.208C970.712 749.539 970.811 740.87 970.863 732.2C970.927 721.907 970.922 711.613 970.922 701.32C970.922 701.32 970.915 585.268 970.915 583.182V492.815C970.915 491.275 970.922 374.737 970.922 374.737" fill="url(#paint0_linear_65_157)"/>
</g>
<mask id="mask0_65_157" style="mask-type:luminance" maskUnits="userSpaceOnUse" x="105" y="105" width="866" height="866">
<path fill-rule="evenodd" clip-rule="evenodd" d="M970.922 374.737C970.922 364.458 970.926 354.179 970.863 343.899C970.811 335.239 970.712 326.582 970.476 317.927C969.968 299.062 968.855 280.036 965.5 261.381C962.097 242.458 956.541 224.846 947.785 207.652C939.177 190.752 927.933 175.288 914.516 161.881C901.103 148.474 885.635 137.237 868.729 128.634C851.517 119.876 833.886 114.322 814.942 110.92C796.285 107.571 777.254 106.46 758.389 105.95C749.728 105.716 741.066 105.617 732.402 105.564C722.118 105.501 711.833 105.506 701.548 105.506L582.129 105.078H492.814L375.508 105.506C365.203 105.506 354.898 105.501 344.594 105.564C335.912 105.617 327.235 105.716 318.556 105.95C299.648 106.46 280.573 107.572 261.872 110.926C242.903 114.326 225.246 119.878 208.011 128.63C191.069 137.234 175.567 148.472 162.126 161.881C148.686 175.287 137.421 190.748 128.797 207.645C120.017 224.847 114.45 242.469 111.039 261.403C107.681 280.05 106.568 299.071 106.056 317.927C105.823 326.583 105.722 335.24 105.67 343.899C105.607 354.18 105.078 366.95 105.078 377.229L105.081 492.91L105.078 583.182L105.612 701.32C105.612 711.613 105.608 721.907 105.67 732.2C105.722 740.871 105.823 749.54 106.057 758.208C106.568 777.097 107.683 796.15 111.044 814.83C114.454 833.779 120.02 851.416 128.793 868.632C137.418 885.556 148.685 901.04 162.126 914.466C175.566 927.892 191.064 939.143 208.002 947.759C225.248 956.528 242.913 962.09 261.895 965.496C280.587 968.851 299.655 969.964 318.556 970.473C327.235 970.708 335.913 970.807 344.595 970.86C354.9 970.923 365.203 970.919 375.508 970.919L493.874 970.922H583.411L701.548 970.918C711.833 970.918 722.118 970.923 732.402 970.86C741.066 970.807 749.728 970.708 758.389 970.473C777.261 969.963 796.299 968.849 814.964 965.491C833.897 962.086 851.519 956.526 868.721 947.762C885.631 939.147 901.102 927.894 914.516 914.466C927.93 901.042 939.174 885.56 947.782 868.639C956.543 851.415 962.099 833.769 965.504 814.808C968.856 796.136 969.968 777.089 970.477 758.208C970.712 749.539 970.811 740.87 970.863 732.2C970.927 721.907 970.922 711.613 970.922 701.32C970.922 701.32 970.915 585.268 970.915 583.182V492.815C970.915 491.275 970.922 374.737 970.922 374.737" fill="white"/>
</mask>
<g mask="url(#mask0_65_157)">
</g>
<g filter="url(#filter1_bd_65_157)">
<path d="M804.78 501.456C802.401 500.643 803.497 501.451 805.438 503.061C805.502 502.189 805.395 501.665 804.78 501.456ZM805.945 567.5C810.553 554.235 811.713 538.932 808.148 521.821C804.251 531.816 799.381 540.254 793.694 547.242C783.137 560.218 770.003 568.003 755.208 571.277C741.064 574.408 725.776 573.295 710.13 568.591C690.476 562.684 669.923 551.014 650.284 535.005C646.313 531.773 644.586 530.42 644.522 530.446C644.436 530.478 643.907 532.421 643.089 535.604C641.491 541.838 641.085 550.319 641.769 559.747C643.757 587.383 654.288 620.236 670.292 625.806C690.973 633.003 715.358 632.757 738.086 626.122C753.615 621.59 768.223 614.104 780.197 604.013C791.796 594.232 800.932 581.947 805.945 567.5ZM835.762 504.533C843.715 531.821 842.636 556.419 835.238 577.72C828.316 597.64 815.872 614.457 800.124 627.733C784.757 640.687 766.235 650.232 746.714 655.931C718.063 664.299 686.921 664.465 660.087 655.123C631.399 645.138 613.471 599.369 610.777 561.94C609.879 549.489 610.59 537.6 613.07 527.937C616.336 515.208 622.868 505.678 633.094 501.611C643.64 497.411 655.988 499.626 669.848 510.916C686.333 524.352 703.224 534.042 718.998 538.783C729.796 542.03 739.834 542.908 748.521 540.987C756.544 539.211 763.744 534.893 769.635 527.653C774.488 521.687 778.572 513.65 781.667 503.345C789.947 475.757 801.193 467.399 814.749 472.011C824.515 475.34 830.833 487.614 835.762 504.533Z" fill="#272727"/>
<path fill-rule="evenodd" clip-rule="evenodd" d="M820.875 508.847C850.498 610.493 738.687 666.05 665.187 640.464C620.077 624.756 608.07 480.575 660.07 522.959C715.162 567.861 776.352 575.119 796.559 507.78C806.487 474.692 813.743 484.382 820.875 508.847Z" fill="white"/>
<path fill-rule="evenodd" clip-rule="evenodd" d="M820.878 508.847C850.501 610.493 738.689 666.05 665.19 640.464C649.126 634.866 637.264 612.984 630.988 589.031L634.468 589.463C721.958 659.078 832.029 597.568 812.517 488.858C815.421 492.336 818.157 499.513 820.878 508.847Z" fill="#CACACA"/>
<path fill-rule="evenodd" clip-rule="evenodd" d="M780.353 623.277L780.105 623.455C777.088 625.491 773.971 627.406 770.777 629.189L770.504 629.336C769.29 630.015 768.06 630.669 766.82 631.307L766.643 631.393C764.679 632.401 762.69 633.359 760.676 634.271L760.22 634.473C759.107 634.97 757.984 635.451 756.86 635.922L755.969 636.287C754.876 636.733 753.778 637.163 752.665 637.579L752.113 637.791L750.119 638.521C749.405 638.774 748.692 639.022 747.978 639.261L747.958 639.271L746.131 639.868L745.134 640.183C744.177 640.481 743.226 640.77 742.274 641.049L740.908 641.439L738.793 642.016L736.91 642.503L735.209 642.913L733.15 643.384L731.394 643.754L729.42 644.149L727.775 644.458C726.965 644.605 726.155 644.742 725.341 644.874L724.146 645.061C723.225 645.203 722.304 645.335 721.383 645.456L720.148 645.613C719.263 645.725 718.377 645.826 717.491 645.917L716.55 646.014C715.649 646.105 714.758 646.181 713.857 646.252L712.82 646.328C711.838 646.393 710.856 646.454 709.88 646.5L708.883 646.54C707.835 646.586 706.787 646.616 705.745 646.637L705.193 646.642C704.227 646.657 703.255 646.657 702.288 646.647L701.534 646.642C700.507 646.626 699.474 646.596 698.452 646.556L697.587 646.52C696.544 646.469 695.497 646.414 694.464 646.333L693.801 646.287C692.728 646.206 691.655 646.11 690.593 646.003L690.481 645.993H690.446L690.248 645.968C689.186 645.856 688.128 645.725 687.075 645.588L686.534 645.517C685.461 645.37 684.388 645.208 683.325 645.031L682.718 644.934C681.645 644.747 680.577 644.554 679.514 644.347L679.059 644.251C678.057 644.043 677.05 643.825 676.058 643.597L675.648 643.501C674.6 643.253 673.558 642.989 672.525 642.71L671.918 642.543C670.921 642.275 669.929 641.986 668.942 641.682L668.264 641.469C667.231 641.15 666.209 640.816 665.192 640.461C664.498 640.223 663.815 639.95 663.137 639.646L663.081 639.62C662.429 639.326 661.781 639.012 661.143 638.668L660.986 638.582C660.354 638.232 659.736 637.862 659.119 637.467L659.023 637.406C658.405 637.001 657.793 636.581 657.191 636.13L657.044 636.023C656.442 635.567 655.854 635.101 655.267 634.6L655.242 634.58L655.197 634.539C654.62 634.043 654.043 633.526 653.476 632.984L653.359 632.872C652.798 632.33 652.236 631.763 651.684 631.18L651.568 631.054C651.031 630.476 650.505 629.883 649.984 629.27L649.781 629.032C649.275 628.429 648.769 627.811 648.278 627.173L648.106 626.945C647.615 626.307 647.14 625.658 646.664 624.99L646.466 624.711C646.036 624.098 645.611 623.465 645.186 622.826L644.882 622.355C644.472 621.712 644.063 621.064 643.663 620.395L643.405 619.964C642.985 619.26 642.575 618.541 642.17 617.821L641.947 617.421C641.542 616.681 641.142 615.927 640.748 615.162L640.55 614.782C640.206 614.108 639.867 613.414 639.533 612.72L639.093 611.798C638.804 611.175 638.516 610.552 638.232 609.923L637.919 609.209C637.615 608.52 637.316 607.816 637.023 607.107L636.679 606.266L635.834 604.143L635.525 603.322C635.251 602.598 634.983 601.874 634.72 601.144L634.442 600.354C634.199 599.655 633.956 598.951 633.723 598.241L633.364 597.142L632.741 595.181L632.402 594.062L631.835 592.116L631.486 590.865L630.99 589.031L634.467 589.462C680.724 626.266 733.286 626.413 769.679 602.314C777.883 606.048 787.22 608.444 797.357 609.229C792.195 614.422 786.476 619.113 780.353 623.277Z" fill="#CACACA"/>
<path d="M256.982 531.105C258.823 529.418 259.892 528.569 257.578 529.379C256.863 529.633 256.818 530.185 256.982 531.105ZM229.289 604.098C221.853 583.374 220.302 559.53 227.102 533.081C231.505 515.979 237.503 503.534 247.371 500.06C260.62 495.399 272.011 503.573 281.099 530.746C284.509 540.935 288.853 548.934 293.924 554.944C300.309 562.514 308.015 566.92 316.513 568.589C325.754 570.412 336.192 569.233 347.198 565.545C362.162 560.534 377.982 550.993 393.35 538.004C407.02 526.444 419.39 524.122 430.102 528.319C440.351 532.331 447.095 541.855 450.706 554.593C453.436 564.248 454.465 576.299 453.9 589.029C452.237 626.426 435.792 671.796 407.439 681.989C381.963 691.149 352.258 691.574 324.361 684.386C303.611 679.041 283.738 669.496 267.222 656.227C250.325 642.652 236.832 625.121 229.289 604.098ZM255.171 549.867C252.402 566.189 253.869 580.838 258.459 593.633C263.934 608.895 273.983 621.822 286.67 632.016C299.741 642.52 315.519 650.086 332.02 654.339C354.165 660.043 377.411 659.828 396.983 652.788C412.41 647.247 421.691 615.045 422.908 587.689C423.333 578.196 422.659 569.527 420.807 562.991C419.827 559.539 419.096 557.388 418.799 557.274C418.746 557.257 417.127 558.575 413.403 561.725C395.113 577.193 375.804 588.701 357.043 594.991C340.941 600.384 325.158 602.009 310.558 599.131C295.221 596.113 281.449 588.32 270.225 575.02C264.417 568.134 259.349 559.785 255.171 549.867Z" fill="#272727"/>
<path fill-rule="evenodd" clip-rule="evenodd" d="M242.111 536.917C215.915 638.762 329.582 693.505 402.211 667.389C446.79 651.358 453.937 507.111 403.375 549.865C349.798 595.163 288.86 602.855 266.39 535.673C255.347 502.658 248.416 512.401 242.111 536.917Z" fill="white"/>
<path fill-rule="evenodd" clip-rule="evenodd" d="M242.113 536.915C215.917 638.761 329.585 693.503 402.212 667.39C418.087 661.679 429.212 639.708 434.68 615.719L431.216 616.174C346.08 686.408 233.95 625.704 249.798 516.865C247.015 520.361 244.519 527.559 242.113 536.915Z" fill="#CACACA"/>
<path d="M711.268 593.894C718.272 596.279 727.466 597.085 741.274 593.379C762.002 587.821 780.812 587.428 797.85 593.192C815.179 599.052 829.961 610.999 842.233 630.008C850.011 642.055 852.848 652.849 852.055 661.646C851.396 669.021 848.456 675.081 843.745 679.656C839.239 684.037 833.408 686.765 826.707 687.687C817.072 689.019 805.193 686.508 793.278 679.546C770.518 666.247 760.363 671.19 748.224 677.103C742.006 680.132 735.456 683.322 727.714 685.714C735.389 688.835 743.53 690.156 751.538 689.045C770.082 686.469 783.969 688.818 792.999 694.092C799.677 697.995 804.11 703.495 806.3 710.095C808.435 716.534 808.181 723.409 805.568 730.269C801.781 740.217 792.461 750.669 777.933 759.215C742.816 779.875 710.597 784.649 681.329 779.06C667.146 776.352 653.809 771.216 641.277 764.294C648.136 776.456 657.124 784.488 664.267 790.869C681.063 805.874 692.228 815.859 678.25 836.958C675.795 840.668 672.456 843.649 668.307 845.961C665.041 847.786 661.303 849.16 657.142 850.118C652.587 851.171 647.894 851.807 643.11 852.061C612.191 853.707 578.556 838.561 551.651 817.763C534.636 804.613 520.039 788.896 510.284 773.484C501.846 785.07 491.8 795.637 480.641 805.063C459.022 823.328 433.06 837.427 406.462 846.406L406.279 846.465C387.569 852.488 369.732 851.442 357.655 846.035C351.307 843.193 346.183 839.11 342.733 834.045C338.662 828.062 336.973 821.122 338.227 813.566C339.753 804.378 345.849 794.713 357.844 785.805L357.92 785.751C371.313 775.22 380.39 764.37 386.103 753.263C387.441 750.669 388.6 748.048 389.588 745.403C368.107 753.163 347.49 757.151 327.521 756.944C298.463 756.65 271.292 747.61 245.43 728.615C236.346 721.944 230.591 714.309 228.139 707.005C226.154 701.089 226.132 695.283 228.024 689.935C230.015 684.317 233.853 679.699 239.476 676.478C245.727 672.898 254.437 671.181 265.272 672.259C306.155 676.334 325.543 655.84 342.823 637.573C351.31 628.603 359.409 620.037 369.135 613.657C331.834 566.316 312.147 505.706 311.794 446.566C311.607 415.313 316.771 384.454 327.534 356.15C338.425 327.507 355.053 301.37 377.667 279.919C414.138 245.318 465.841 223.177 533.706 222.771C567.654 222.566 597.904 227.839 624.378 237.453C669.281 253.758 703.284 282.401 726.135 317.953C748.81 353.232 760.393 395.292 760.653 438.78C760.834 468.81 755.603 499.518 744.891 529.088C739.538 543.854 733.647 557.362 726.383 570.354L725.875 571.196C721.526 578.903 716.712 586.417 711.268 593.894ZM683.095 614.466L680.301 612.747C679.273 612.218 678.293 611.565 677.373 610.788C670.787 605.208 669.964 595.341 675.541 588.742C684.946 577.674 692.422 566.928 698.67 555.872L699.099 555.043C705.559 543.491 710.79 531.509 715.526 518.432C724.998 492.307 729.613 465.262 729.456 438.901C729.232 401.358 719.294 365.129 699.831 334.857C680.549 304.857 651.783 280.664 613.739 266.848C590.568 258.432 563.914 253.818 533.831 254C474.726 254.351 430.19 273.168 399.199 302.574C380.15 320.647 366.07 342.848 356.773 367.296C347.349 392.083 342.829 419.097 342.99 446.445C343.344 505.173 365.11 565.414 406.163 608.768C407.186 609.879 408.084 611.143 408.793 612.566C412.253 619.494 410.081 627.768 404.016 632.172L403.844 632.299C402.112 633.528 400.104 634.422 397.889 634.863C386.154 637.247 376.215 647.753 365.457 659.126C343.493 682.343 318.882 708.35 264.113 703.537C284.439 718.412 305.5 725.49 327.766 725.716C350.917 725.954 375.916 718.938 403.171 705.687C405.301 704.674 407.689 704.114 410.205 704.154C418.819 704.29 425.692 711.39 425.56 720.012C425.266 736.29 421.802 752.196 413.878 767.591C406.191 782.525 394.355 796.828 377.187 810.322L376.438 810.913C372.845 813.583 370.678 815.656 369.686 817.172L370.378 817.499C376.153 820.081 385.684 820.259 396.71 816.716C419.605 808.968 441.911 796.848 460.457 781.184C476.892 767.302 490.266 750.731 498.261 732.113C500.349 726.4 505.685 722.193 512.137 721.864C520.751 721.426 528.096 728.061 528.534 736.683C528.588 737.757 528.779 738.985 529.093 740.339C532.673 755.853 549.108 776.306 570.737 793.024C592.431 809.791 618.668 822.05 641.519 820.831C644.434 820.678 647.325 820.282 650.168 819.623C650.96 819.442 651.632 819.256 652.17 819.066C651.408 818.175 647.337 817.595 643.466 814.14C626.567 799.039 601.806 776.912 599.689 726.7H599.713C599.556 722.736 600.904 718.711 603.783 715.556C609.596 709.199 619.461 708.76 625.811 714.577C644.041 731.262 664.497 744.007 687.081 748.319C709.333 752.569 734.288 748.664 762.153 732.271C769.248 728.097 773.766 723.963 775.707 720.451C771.915 719.026 765.389 718.703 755.82 720.029C740.306 722.19 725.004 719.232 711.19 712.652L711.202 712.626C697.297 705.992 684.819 695.611 675.202 683.109C672.257 679.772 670.744 675.211 671.434 670.463C672.686 661.906 680.633 655.987 689.18 657.237C710.936 660.421 723.462 654.322 734.524 648.937C754.865 639.032 771.866 630.749 809.058 652.481C813.787 655.244 817.828 656.627 820.797 656.765C820.283 654.395 818.777 651.129 816.049 646.91C807.842 634.202 798.503 626.397 787.943 622.825C777.086 619.158 764.215 619.644 749.349 623.634C713.434 633.269 696.982 623.074 683.095 614.466Z" fill="#272727"/>
<path fill-rule="evenodd" clip-rule="evenodd" d="M687.465 598.85C699.684 606.031 712.47 617.317 745.31 608.506C780.908 598.958 808.66 606.741 829.144 638.458C848.441 668.342 827.076 681.156 801.165 666.012C747.026 634.377 746.382 681.441 686.911 672.731C702.812 693.92 728.175 708.085 753.681 704.536C799.503 698.168 803.542 726.03 770.041 745.743C707.054 782.802 655.715 763.094 615.285 726.087C618.448 801.072 680.798 804.805 665.218 828.327C663.121 831.489 659.183 833.596 653.654 834.871C595.29 848.362 515.048 777.305 512.933 737.48C494.135 782.123 448.949 815.571 401.506 831.588C364.645 843.451 335.082 822.163 367.14 798.361C398.158 774.137 409.45 747.627 409.958 719.769C351.246 748.317 300.922 749.976 254.667 716.003C235.153 701.668 239.02 685.349 263.739 687.812C342.929 695.704 351.868 628.283 394.828 619.553L394.845 619.545C276.66 494.727 308.193 239.747 533.767 238.388C710.003 237.32 777.971 391.946 730.207 523.759C720.114 551.611 707.966 574.715 687.465 598.85Z" fill="white"/>
<path fill-rule="evenodd" clip-rule="evenodd" d="M687.467 598.849C699.687 606.034 712.475 617.315 745.309 608.505C780.908 598.956 808.662 606.74 829.142 638.459C836.006 649.092 837.726 657.563 835.921 663.387C825.814 635.122 791.149 601.761 748.579 612.915C719.339 620.573 702.288 617.432 687.467 598.849Z" fill="white"/>
<path fill-rule="evenodd" clip-rule="evenodd" d="M686.912 672.734C702.806 693.923 728.174 708.086 753.676 704.535C773.826 701.738 785.887 705.55 790.242 712.384C772.02 707.69 766.28 710.518 753.35 711.632C710.949 715.283 658.027 673.91 659.116 637.468C668.378 649.22 677.645 660.977 686.912 672.734Z" fill="white"/>
<path fill-rule="evenodd" clip-rule="evenodd" d="M642.803 836.416C585.83 839.844 514.918 774.886 512.932 737.481L508.206 718.617L508.141 705.135C533.981 783.367 584.802 812.071 642.803 836.416Z" fill="#CACACA"/>
<path fill-rule="evenodd" clip-rule="evenodd" d="M762.203 655.381C741.911 658.456 729.018 676.469 693.507 673.486L661.877 629.971C717.578 659.334 732.618 634.424 762.203 655.376V655.381Z" fill="white"/>
<path fill-rule="evenodd" clip-rule="evenodd" d="M672.282 760.707C655.692 755.575 640.355 746.657 626.234 735.44C621.558 714.775 616.071 700.704 601.408 673.86C647.783 686.689 661.742 714.625 672.282 760.707Z" fill="white"/>
<path fill-rule="evenodd" clip-rule="evenodd" d="M511.802 740.067C502.15 761.607 486.339 780.461 467.17 795.903C477.938 756.367 453.537 714.009 506.766 682.306C507.295 703.489 510.009 721.008 511.802 740.067Z" fill="white"/>
<path fill-rule="evenodd" clip-rule="evenodd" d="M823.765 672.193C817.482 672.815 809.522 670.896 801.165 666.013C749.719 635.951 746.575 676.955 695.359 673.625C687.217 663.326 679.069 653.021 670.932 642.716C709.477 665.234 738.913 635.172 776.006 639.935C792.772 642.094 802.925 657.909 823.765 672.193Z" fill="#CACACA"/>
<path fill-rule="evenodd" clip-rule="evenodd" d="M792.006 720.43C791.121 728.308 783.705 737.705 770.043 745.745C710.642 780.691 661.608 765.152 622.308 732.239C618.985 709.735 618.019 699.718 606.973 679.158C632.545 695.445 649.631 725.99 679.85 738.695C710.792 751.7 754.079 747.343 792.006 720.43Z" fill="#CACACA"/>
<path fill-rule="evenodd" clip-rule="evenodd" d="M509.231 745.459C488.655 786.105 446.079 816.543 401.505 831.588C397.184 832.98 392.962 833.909 388.928 834.44C504.028 760.834 453.911 742.983 502.845 696.617L509.231 745.459Z" fill="#CACACA"/>
<path fill-rule="evenodd" clip-rule="evenodd" d="M406.944 721.215C349.523 748.358 300.131 749.392 254.67 716.002C252.084 714.1 249.913 712.168 248.143 710.249C297.368 728.791 341.631 723.882 361.849 716.022C391.841 704.362 394.155 680.063 427.538 665.448C410.101 686.15 407.898 699.079 406.944 721.215Z" fill="#CACACA"/>
<path d="M452.769 652.376C453.184 655.112 446.85 659.025 438.318 665.047C428.871 671.733 422.45 679.748 418.065 689.976C413.459 700.72 410.587 714.03 409.174 730.74C408.811 734.991 405.449 738.07 401.199 737.651C396.945 737.233 393.787 733.442 394.149 729.191C395.704 710.841 398.521 696.057 403.804 683.729C408.58 672.601 420.443 658.952 431.404 653.414C438.743 649.706 451.753 645.614 452.769 652.376Z" fill="#272727"/>
<path d="M500.349 682.237C506.5 668.159 523.62 667.84 514.548 688.604C511.328 695.983 510.081 705.894 510.601 717.01C511.149 728.82 513.57 742.506 517.963 755.355C519.356 759.42 517.381 763.194 513.334 764.535C509.289 765.875 504.876 763.662 503.483 759.596C498.644 745.461 495.787 730.872 495.158 717.494C494.532 704.08 496.179 691.799 500.349 682.237Z" fill="#272727"/>
<path d="M605.159 667.405C616.399 676.228 621.501 688.404 625.679 704.129C629.117 717.058 631.838 731.211 632.23 740.509C632.405 744.777 629.088 748.335 624.825 748.453C620.561 748.566 616.962 745.198 616.792 740.93C614.796 723.871 609.913 690.061 595.924 674.522C585.449 662.886 597.887 661.702 605.159 667.405Z" fill="#272727"/>
<path d="M660.358 627.098C663.841 625.251 668.332 634.47 673.925 642.141C684.719 656.945 695.517 666.297 711.337 676.029C718.551 680.455 712.458 695.594 708.275 693.029C690.098 681.844 672.538 666.888 662.592 647.955C658.307 639.79 655.657 629.38 660.358 627.098Z" fill="#272727"/>
<path fill-rule="evenodd" clip-rule="evenodd" d="M434.937 387.037C452.26 386.411 466.176 402.407 466.018 422.77C465.859 443.134 451.689 460.144 434.364 460.771C417.037 461.392 403.125 445.396 403.283 425.037C403.441 404.674 417.611 387.663 434.937 387.037Z" fill="#272727"/>
<path fill-rule="evenodd" clip-rule="evenodd" d="M441.436 400.653C448.617 400.395 454.386 407.031 454.321 415.469C454.256 423.911 448.38 430.965 441.199 431.228C434.015 431.486 428.246 424.855 428.311 416.407C428.376 407.969 434.252 400.916 441.436 400.653Z" fill="white"/>
<path fill-rule="evenodd" clip-rule="evenodd" d="M616.936 370.26C597.484 370.966 583.668 390.144 586.077 413.099C588.492 436.049 606.209 454.088 625.661 453.377C645.114 452.671 658.924 433.498 656.515 410.543C654.106 387.588 636.389 369.554 616.936 370.26Z" fill="#272727"/>
<path fill-rule="evenodd" clip-rule="evenodd" d="M611.162 386.155C603.096 386.443 597.372 394.396 598.371 403.91C599.365 413.429 606.715 420.907 614.776 420.614C622.847 420.321 628.57 412.368 627.571 402.854C626.572 393.335 619.227 385.862 611.162 386.155Z" fill="white"/>
<path fill-rule="evenodd" clip-rule="evenodd" d="M597.678 297.531C604.526 301.481 608.534 307.926 606.642 311.926C604.751 315.932 597.672 315.971 590.825 312.022C583.982 308.077 579.969 301.633 581.861 297.632C583.758 293.632 590.836 293.587 597.678 297.531Z" fill="white"/>
<path fill-rule="evenodd" clip-rule="evenodd" d="M402.86 636.222C405.47 637.59 405.149 641.697 402.142 645.394C399.131 649.092 394.578 650.982 391.972 649.614C389.359 648.243 389.683 644.136 392.69 640.438C395.701 636.74 400.254 634.851 402.86 636.222Z" fill="white"/>
<path fill-rule="evenodd" clip-rule="evenodd" d="M560.945 677.981C557.197 677.683 554.854 682.397 555.716 688.497C556.581 694.605 560.318 699.792 564.065 700.086C567.817 700.383 570.156 695.67 569.295 689.565C568.433 683.461 564.692 678.274 560.945 677.981Z" fill="white"/>
<path fill-rule="evenodd" clip-rule="evenodd" d="M569.629 732.898C565.876 732.6 563.539 737.311 564.399 743.418C565.262 749.522 569.001 754.713 572.751 755.007C576.501 755.302 578.841 750.587 577.978 744.483C577.115 738.38 573.376 733.188 569.629 732.898Z" fill="white"/>
<path fill-rule="evenodd" clip-rule="evenodd" d="M769.363 563.837C765.608 564.076 763.907 568.439 765.574 573.593C767.235 578.736 771.629 582.717 775.384 582.479C779.143 582.241 780.839 577.877 779.178 572.724C777.516 567.576 773.122 563.599 769.363 563.837Z" fill="white"/>
<path fill-rule="evenodd" clip-rule="evenodd" d="M750.373 564.825C747.808 564.984 746.652 567.967 747.784 571.48C748.922 574.997 751.921 577.714 754.485 577.55C757.05 577.386 758.207 574.404 757.074 570.891C755.936 567.378 752.938 564.661 750.373 564.825Z" fill="white"/>
<path d="M536.728 509.916C523.924 512.414 510.051 509.385 496.973 500.455C493.837 498.314 492.257 493.316 493.453 489.286C494.642 485.249 498.149 483.735 501.297 485.883C522.504 500.355 546.309 495.727 560.541 474.322C562.648 471.149 566.473 471.241 569.087 474.527C571.708 477.812 572.119 483.038 570.016 486.201C561.247 499.395 549.525 507.419 536.728 509.916Z" fill="#272727"/>
</g>
<defs>
<filter id="filter0_d_65_157" x="95.0781" y="105.078" width="885.844" height="885.844" filterUnits="userSpaceOnUse" color-interpolation-filters="sRGB">
<feFlood flood-opacity="0" result="BackgroundImageFix"/>
<feColorMatrix in="SourceAlpha" type="matrix" values="0 0 0 0 0 0 0 0 0 0 0 0 0 0 0 0 0 0 127 0" result="hardAlpha"/>
<feOffset dy="10"/>
<feGaussianBlur stdDeviation="5"/>
<feColorMatrix type="matrix" values="0 0 0 0 0 0 0 0 0 0 0 0 0 0 0 0 0 0 0.3 0"/>
<feBlend mode="normal" in2="BackgroundImageFix" result="effect1_dropShadow_65_157"/>
<feBlend mode="normal" in="SourceGraphic" in2="effect1_dropShadow_65_157" result="shape"/>
</filter>
<filter id="filter1_bd_65_157" x="218.766" y="218.766" width="637.418" height="641.418" filterUnits="userSpaceOnUse" color-interpolation-filters="sRGB">
<feFlood flood-opacity="0" result="BackgroundImageFix"/>
<feGaussianBlur in="BackgroundImageFix" stdDeviation="2"/>
<feComposite in2="SourceAlpha" operator="in" result="effect1_backgroundBlur_65_157"/>
<feColorMatrix in="SourceAlpha" type="matrix" values="0 0 0 0 0 0 0 0 0 0 0 0 0 0 0 0 0 0 127 0" result="hardAlpha"/>
<feOffset dy="4"/>
<feGaussianBlur stdDeviation="2"/>
<feComposite in2="hardAlpha" operator="out"/>
<feColorMatrix type="matrix" values="0 0 0 0 0 0 0 0 0 0 0 0 0 0 0 0 0 0 0.25 0"/>
<feBlend mode="normal" in2="effect1_backgroundBlur_65_157" result="effect2_dropShadow_65_157"/>
<feBlend mode="normal" in="SourceGraphic" in2="effect2_dropShadow_65_157" result="shape"/>
</filter>
<linearGradient id="paint0_linear_65_157" x1="538" y1="105.078" x2="538" y2="970.922" gradientUnits="userSpaceOnUse">
<stop stop-color="#EB4E3D"/>
<stop offset="1" stop-color="#C13838"/>
</linearGradient>
</defs>
</svg>
